<svg xmlns="http://www.w3.org/2000/svg" xmlns:xlink="http://www.w3.org/1999/xlink" width="100" zoomAndPan="magnify" viewBox="0 0 75 74.999997" height="100" preserveAspectRatio="xMidYMid meet" version="1.0"><defs><clipPath id="053e526a4b"><path d="M 14.6875 18.851562 L 58 18.851562 L 58 44 L 14.6875 44 Z M 14.6875 18.851562 " clip-rule="nonzero"/></clipPath><clipPath id="43488af2b4"><path d="M 19 51 L 25 51 L 25 56.351562 L 19 56.351562 Z M 19 51 " clip-rule="nonzero"/></clipPath><clipPath id="506298177e"><path d="M 39 38 L 60.4375 38 L 60.4375 56.351562 L 39 56.351562 Z M 39 38 " clip-rule="nonzero"/></clipPath><clipPath id="a3af798179"><path d="M 39 38 L 60.4375 38 L 60.4375 46 L 39 46 Z M 39 38 " clip-rule="nonzero"/></clipPath></defs><g clip-path="url(#053e526a4b)"><path fill="#55acee" d="M 40.472656 43.339844 C 40.445312 43.339844 40.445312 43.339844 40.472656 43.339844 C 38.996094 43.285156 37.496094 43.257812 36.023438 43.257812 C 31.707031 43.152344 27.230469 43.042969 22.863281 43.042969 C 18.359375 43.042969 14.6875 39.335938 14.6875 34.847656 C 14.6875 30.332031 18.359375 26.675781 22.863281 26.675781 C 23.15625 26.675781 23.453125 26.675781 23.746094 26.730469 C 23.90625 22.347656 27.5 18.855469 31.894531 18.855469 C 34.628906 18.855469 37.175781 20.226562 38.675781 22.511719 C 41.917969 22.644531 44.734375 24.660156 45.964844 27.617188 C 46.929688 27.242188 47.949219 27.050781 48.992188 27.050781 C 53.46875 27.050781 57.113281 30.734375 57.113281 35.25 C 57.113281 38.367188 55.292969 41.296875 52.425781 42.613281 C 52.101562 42.773438 51.726562 42.613281 51.59375 42.316406 C 51.539062 42.238281 51.511719 42.15625 51.511719 42.078125 L 41.0625 42.773438 C 41.035156 43.097656 40.765625 43.339844 40.472656 43.339844 Z M 40.472656 43.339844 " fill-opacity="1" fill-rule="evenodd"/></g><path fill="#ff4141" d="M 40.472656 48.875 L 31.414062 48.875 C 29.964844 48.875 28.8125 47.71875 28.8125 46.269531 L 28.8125 32.132812 C 28.8125 31.753906 29.105469 31.460938 29.484375 31.460938 C 29.859375 31.460938 30.152344 31.753906 30.152344 32.132812 L 30.152344 46.269531 C 30.152344 46.996094 30.742188 47.585938 31.4375 47.585938 L 40.472656 47.585938 C 40.847656 47.585938 41.140625 47.882812 41.140625 48.257812 C 41.140625 48.632812 40.820312 48.875 40.472656 48.875 Z M 40.472656 48.875 " fill-opacity="1" fill-rule="evenodd"/><path fill="#ff4141" d="M 26.265625 35.949219 C 26.132812 35.949219 25.945312 35.894531 25.835938 35.761719 C 25.570312 35.519531 25.570312 35.089844 25.835938 34.847656 L 29.027344 31.648438 C 29.296875 31.378906 29.695312 31.378906 29.964844 31.648438 C 30.207031 31.890625 30.207031 32.292969 29.964844 32.5625 L 26.75 35.761719 C 26.613281 35.894531 26.425781 35.949219 26.265625 35.949219 Z M 26.265625 35.949219 " fill-opacity="1" fill-rule="evenodd"/><path fill="#ff4141" d="M 32.644531 35.949219 C 32.484375 35.949219 32.296875 35.894531 32.191406 35.761719 L 29 32.5625 C 28.730469 32.292969 28.730469 31.890625 29 31.648438 C 29.242188 31.378906 29.671875 31.378906 29.910156 31.648438 L 33.128906 34.847656 C 33.367188 35.089844 33.367188 35.519531 33.128906 35.761719 C 32.964844 35.894531 32.804688 35.949219 32.644531 35.949219 Z M 32.644531 35.949219 " fill-opacity="1" fill-rule="evenodd"/><path fill="#ff4141" d="M 40.472656 53.175781 L 20.558594 53.175781 C 20.183594 53.175781 19.886719 52.882812 19.886719 52.503906 C 19.886719 52.128906 20.183594 51.832031 20.558594 51.832031 L 40.472656 51.832031 C 40.847656 51.832031 41.140625 52.128906 41.140625 52.503906 C 41.140625 52.882812 40.820312 53.175781 40.472656 53.175781 Z M 40.472656 53.175781 " fill-opacity="1" fill-rule="evenodd"/><g clip-path="url(#43488af2b4)"><path fill="#ff4141" d="M 23.746094 56.347656 C 23.613281 56.347656 23.425781 56.265625 23.316406 56.160156 L 20.101562 52.960938 C 19.859375 52.691406 19.859375 52.289062 20.101562 52.019531 C 20.371094 51.753906 20.773438 51.753906 21.039062 52.019531 L 24.230469 55.21875 C 24.496094 55.488281 24.496094 55.890625 24.230469 56.160156 C 24.09375 56.292969 23.90625 56.347656 23.746094 56.347656 Z M 23.746094 56.347656 " fill-opacity="1" fill-rule="evenodd"/></g><path fill="#ff4141" d="M 20.558594 53.175781 C 20.371094 53.175781 20.210938 53.097656 20.101562 52.988281 C 19.859375 52.71875 19.859375 52.316406 20.101562 52.046875 L 23.316406 48.875 C 23.558594 48.632812 23.960938 48.632812 24.230469 48.875 C 24.496094 49.144531 24.496094 49.546875 24.230469 49.816406 L 21.039062 52.988281 C 20.878906 53.097656 20.691406 53.175781 20.558594 53.175781 Z M 20.558594 53.175781 " fill-opacity="1" fill-rule="evenodd"/><g clip-path="url(#506298177e)"><path fill="#ffbe00" d="M 58.265625 56.1875 L 41.890625 56.1875 C 40.738281 56.1875 39.800781 55.21875 39.800781 54.0625 L 39.800781 40.035156 C 39.800781 39.390625 40.308594 38.878906 40.953125 38.878906 L 47.894531 38.878906 C 48.269531 38.878906 48.644531 39.066406 48.832031 39.441406 L 49.851562 41.164062 L 58.320312 41.164062 C 59.472656 41.164062 60.4375 42.128906 60.4375 43.285156 L 60.4375 54.011719 C 60.359375 55.21875 59.417969 56.1875 58.265625 56.1875 Z M 58.265625 56.1875 " fill-opacity="1" fill-rule="evenodd"/></g><g clip-path="url(#a3af798179)"><path fill="#ff9a00" d="M 47.894531 38.878906 L 40.953125 38.878906 C 40.308594 38.878906 39.800781 39.390625 39.800781 40.035156 L 39.800781 45.515625 L 60.4375 45.515625 L 60.4375 43.285156 C 60.4375 42.128906 59.472656 41.164062 58.320312 41.164062 L 49.851562 41.164062 L 48.832031 39.441406 C 48.644531 39.066406 48.269531 38.878906 47.894531 38.878906 Z M 47.894531 38.878906 " fill-opacity="1" fill-rule="evenodd"/></g></svg>