<svg xmlns="http://www.w3.org/2000/svg" xmlns:xlink="http://www.w3.org/1999/xlink" width="100" zoomAndPan="magnify" viewBox="0 0 75 74.999997" height="100" preserveAspectRatio="xMidYMid meet" version="1.0"><defs><clipPath id="9b08012976"><path d="M 18.707031 14.546875 L 56.207031 14.546875 L 56.207031 60.296875 L 18.707031 60.296875 Z M 18.707031 14.546875 " clip-rule="nonzero"/></clipPath></defs><path fill="#00ec6a" d="M 37.667969 57.46875 L 33.253906 54.542969 C 25.683594 49.394531 21.035156 40.855469 21.035156 31.808594 L 21.035156 25.960938 C 26.191406 25.21875 31.070312 23.039062 35.203125 19.605469 L 37.386719 17.65625 L 39.570312 19.605469 C 43.472656 23.039062 48.351562 25.21875 53.507812 25.960938 L 53.738281 25.960938 L 53.738281 31.808594 C 53.738281 40.855469 49.328125 49.394531 41.523438 54.542969 Z M 37.667969 57.46875 " fill-opacity="1" fill-rule="nonzero"/><g clip-path="url(#9b08012976)"><path fill="#14c962" d="M 32 56.445312 C 23.683594 50.832031 18.761719 41.597656 18.761719 31.808594 L 18.761719 23.921875 L 20.710938 23.640625 C 25.402344 22.992188 29.863281 20.949219 33.71875 17.84375 L 37.433594 14.546875 L 41.199219 17.886719 C 44.726562 20.949219 49.046875 22.945312 53.738281 23.640625 L 56.15625 23.640625 L 56.15625 31.808594 C 56.15625 41.785156 51.230469 50.972656 42.960938 56.398438 L 37.761719 60.296875 Z M 32 56.445312 " fill-opacity="1" fill-rule="nonzero"/></g><path fill="#00ec6a" d="M 37.667969 57.46875 L 33.253906 54.542969 C 25.683594 49.394531 21.035156 40.855469 21.035156 31.808594 L 21.035156 25.960938 C 26.191406 25.21875 31.070312 23.039062 35.203125 19.605469 L 37.386719 17.65625 L 39.570312 19.605469 C 43.472656 23.039062 48.351562 25.21875 53.507812 25.960938 L 53.738281 25.960938 L 53.738281 31.808594 C 53.738281 40.855469 49.328125 49.394531 41.523438 54.542969 Z M 37.667969 57.46875 " fill-opacity="1" fill-rule="nonzero"/><path fill="#ffffff" d="M 36.460938 43.546875 C 36.460938 43.546875 36.226562 43.546875 36.460938 43.546875 C 35.714844 43.546875 35.25 43.316406 34.742188 42.804688 L 29.121094 37.421875 C 28.375 36.679688 28.375 35.242188 29.121094 34.5 C 29.863281 33.757812 31.304688 33.757812 32.046875 34.5 L 36.179688 38.164062 L 43.289062 31.34375 C 44.03125 30.601562 45.472656 30.601562 46.214844 31.34375 C 46.957031 32.085938 46.957031 33.523438 46.214844 34.269531 L 37.667969 43.039062 C 37.433594 43.316406 36.921875 43.546875 36.460938 43.546875 Z M 36.460938 43.546875 " fill-opacity="1" fill-rule="nonzero"/></svg>