<svg xmlns="http://www.w3.org/2000/svg" xmlns:xlink="http://www.w3.org/1999/xlink" width="100" zoomAndPan="magnify" viewBox="0 0 75 74.999997" height="100" preserveAspectRatio="xMidYMid meet" version="1.0"><defs><clipPath id="1108356a4e"><path d="M 17.230469 17.230469 L 57.730469 17.230469 L 57.730469 57.730469 L 17.230469 57.730469 Z M 17.230469 17.230469 " clip-rule="nonzero"/></clipPath></defs><g clip-path="url(#1108356a4e)"><path fill="#ff9aa2" d="M 57.730469 37.480469 C 57.730469 38.144531 57.699219 38.808594 57.632812 39.46875 C 57.570312 40.128906 57.472656 40.78125 57.34375 41.433594 C 57.214844 42.082031 57.050781 42.726562 56.859375 43.359375 C 56.667969 43.996094 56.445312 44.617188 56.191406 45.230469 C 55.9375 45.84375 55.652344 46.441406 55.339844 47.027344 C 55.027344 47.613281 54.6875 48.179688 54.320312 48.730469 C 53.949219 49.285156 53.554688 49.816406 53.136719 50.328125 C 52.714844 50.839844 52.269531 51.332031 51.800781 51.800781 C 51.332031 52.269531 50.839844 52.714844 50.328125 53.136719 C 49.816406 53.554688 49.285156 53.949219 48.734375 54.320312 C 48.179688 54.6875 47.613281 55.027344 47.027344 55.339844 C 46.441406 55.652344 45.84375 55.9375 45.230469 56.191406 C 44.617188 56.445312 43.996094 56.667969 43.359375 56.859375 C 42.726562 57.050781 42.082031 57.214844 41.433594 57.34375 C 40.78125 57.472656 40.128906 57.570312 39.46875 57.632812 C 38.808594 57.699219 38.144531 57.730469 37.480469 57.730469 C 36.820312 57.730469 36.15625 57.699219 35.496094 57.632812 C 34.835938 57.570312 34.183594 57.472656 33.53125 57.34375 C 32.882812 57.214844 32.238281 57.050781 31.605469 56.859375 C 30.96875 56.667969 30.34375 56.445312 29.734375 56.191406 C 29.121094 55.9375 28.519531 55.652344 27.9375 55.339844 C 27.351562 55.027344 26.785156 54.6875 26.230469 54.320312 C 25.679688 53.949219 25.148438 53.554688 24.636719 53.136719 C 24.121094 52.714844 23.632812 52.269531 23.164062 51.800781 C 22.695312 51.332031 22.25 50.839844 21.828125 50.328125 C 21.40625 49.816406 21.011719 49.285156 20.644531 48.734375 C 20.277344 48.179688 19.9375 47.613281 19.625 47.027344 C 19.3125 46.441406 19.027344 45.84375 18.773438 45.230469 C 18.519531 44.617188 18.296875 43.996094 18.105469 43.359375 C 17.910156 42.726562 17.75 42.082031 17.621094 41.433594 C 17.492188 40.78125 17.394531 40.128906 17.328125 39.46875 C 17.265625 38.808594 17.230469 38.144531 17.230469 37.480469 C 17.230469 36.820312 17.265625 36.15625 17.328125 35.496094 C 17.394531 34.835938 17.492188 34.183594 17.621094 33.53125 C 17.75 32.882812 17.910156 32.238281 18.105469 31.605469 C 18.296875 30.96875 18.519531 30.34375 18.773438 29.734375 C 19.027344 29.121094 19.3125 28.519531 19.625 27.9375 C 19.9375 27.351562 20.277344 26.785156 20.644531 26.230469 C 21.011719 25.679688 21.40625 25.148438 21.828125 24.636719 C 22.25 24.121094 22.695312 23.632812 23.164062 23.164062 C 23.632812 22.695312 24.121094 22.25 24.636719 21.828125 C 25.148438 21.40625 25.679688 21.011719 26.230469 20.644531 C 26.785156 20.277344 27.351562 19.9375 27.9375 19.625 C 28.519531 19.3125 29.121094 19.027344 29.734375 18.773438 C 30.34375 18.519531 30.96875 18.296875 31.605469 18.105469 C 32.238281 17.910156 32.882812 17.75 33.53125 17.621094 C 34.183594 17.492188 34.835938 17.394531 35.496094 17.328125 C 36.15625 17.265625 36.820312 17.230469 37.480469 17.230469 C 38.144531 17.230469 38.808594 17.265625 39.46875 17.328125 C 40.128906 17.394531 40.78125 17.492188 41.433594 17.621094 C 42.082031 17.75 42.726562 17.910156 43.359375 18.105469 C 43.996094 18.296875 44.617188 18.519531 45.230469 18.773438 C 45.84375 19.027344 46.441406 19.3125 47.027344 19.625 C 47.613281 19.9375 48.179688 20.277344 48.730469 20.644531 C 49.285156 21.011719 49.816406 21.40625 50.328125 21.828125 C 50.839844 22.25 51.332031 22.695312 51.800781 23.164062 C 52.269531 23.632812 52.714844 24.121094 53.136719 24.636719 C 53.554688 25.148438 53.949219 25.679688 54.320312 26.230469 C 54.6875 26.785156 55.027344 27.351562 55.339844 27.9375 C 55.652344 28.519531 55.9375 29.121094 56.191406 29.734375 C 56.445312 30.34375 56.667969 30.96875 56.859375 31.605469 C 57.050781 32.238281 57.214844 32.882812 57.34375 33.53125 C 57.472656 34.183594 57.570312 34.835938 57.632812 35.496094 C 57.699219 36.15625 57.730469 36.820312 57.730469 37.480469 Z M 57.730469 37.480469 " fill-opacity="1" fill-rule="nonzero"/></g><path fill="#cdd5f6" d="M 37.164062 35.582031 C 37.164062 35.171875 37.769531 35.171875 37.769531 35.582031 L 37.769531 37.421875 C 37.769531 37.816406 37.164062 37.816406 37.164062 37.421875 Z M 37.164062 35.582031 " fill-opacity="1" fill-rule="nonzero"/><path fill="#cdd5f6" d="M 30.417969 39.625 C 30.417969 40.019531 29.808594 40.019531 29.808594 39.625 L 29.808594 37.421875 C 29.808594 37.253906 29.945312 37.117188 30.113281 37.117188 L 44.851562 37.117188 C 45.015625 37.117188 45.152344 37.253906 45.152344 37.421875 L 45.152344 39.625 C 45.152344 40.019531 44.546875 40.019531 44.546875 39.625 L 44.546875 37.726562 L 30.417969 37.726562 Z M 30.417969 39.625 " fill-opacity="1" fill-rule="nonzero"/><path fill="#687db3" d="M 28.519531 47.144531 L 31.726562 47.144531 C 31.816406 47.144531 31.890625 47.21875 31.890625 47.3125 L 31.890625 48.90625 C 31.890625 48.996094 31.816406 49.074219 31.726562 49.074219 L 28.519531 49.074219 C 28.429688 49.074219 28.351562 48.996094 28.351562 48.90625 L 28.351562 47.3125 C 28.351562 47.21875 28.429688 47.144531 28.519531 47.144531 Z M 28.519531 47.144531 " fill-opacity="1" fill-rule="nonzero"/><path fill="#445ea0" d="M 24.523438 45.699219 L 24.523438 39.898438 C 24.523438 39.625 24.75 39.394531 25.039062 39.394531 L 35.203125 39.394531 C 35.492188 39.394531 35.71875 39.625 35.71875 39.898438 L 35.71875 45.699219 L 32.925781 45.867188 L 25.695312 45.835938 Z M 24.523438 45.699219 " fill-opacity="1" fill-rule="nonzero"/><path fill="#b7d7fe" d="M 25.222656 45.851562 L 25.222656 40.246094 C 25.222656 40.15625 25.296875 40.09375 25.390625 40.09375 L 34.855469 40.09375 C 34.945312 40.09375 35.019531 40.15625 35.019531 40.246094 L 35.019531 46.050781 C 35.019531 46.125 25.222656 46.1875 25.222656 45.851562 Z M 25.222656 45.851562 " fill-opacity="1" fill-rule="nonzero"/><path fill="#2e4c89" d="M 30.113281 47.460938 L 25.039062 47.460938 C 24.75 47.460938 24.523438 47.234375 24.523438 46.960938 L 24.523438 45.699219 L 35.71875 45.699219 L 35.71875 46.960938 C 35.71875 47.234375 35.492188 47.460938 35.203125 47.460938 Z M 30.113281 47.460938 " fill-opacity="1" fill-rule="nonzero"/><path fill="#ed524e" d="M 25.542969 46.75 C 25.328125 46.75 25.328125 46.414062 25.542969 46.414062 C 25.632812 46.414062 25.816406 46.398438 25.816406 46.582031 C 25.816406 46.765625 25.632812 46.75 25.542969 46.75 Z M 25.542969 46.75 " fill-opacity="1" fill-rule="nonzero"/><path fill="#43cb8e" d="M 26.363281 46.75 C 26.148438 46.75 26.148438 46.414062 26.363281 46.414062 C 26.453125 46.414062 26.636719 46.398438 26.636719 46.582031 C 26.636719 46.765625 26.453125 46.75 26.363281 46.75 Z M 26.363281 46.75 " fill-opacity="1" fill-rule="nonzero"/><path fill="#9fc9fc" d="M 34.855469 40.09375 L 25.390625 40.09375 C 25.296875 40.09375 25.222656 40.15625 25.222656 40.246094 L 25.222656 45.699219 L 34.960938 40.125 C 34.929688 40.109375 34.898438 40.09375 34.855469 40.09375 Z M 34.855469 40.09375 " fill-opacity="1" fill-rule="nonzero"/><path fill="#2e4c89" d="M 27.441406 49.210938 C 27.03125 49.210938 27.03125 48.601562 27.441406 48.601562 L 32.804688 48.601562 C 33.214844 48.601562 33.214844 49.210938 32.804688 49.210938 Z M 27.441406 49.210938 " fill-opacity="1" fill-rule="nonzero"/><path fill="#687db3" d="M 43.253906 47.023438 L 46.460938 47.023438 C 46.550781 47.023438 46.613281 47.097656 46.613281 47.1875 L 46.613281 48.785156 C 46.613281 48.875 46.550781 48.953125 46.460938 48.953125 L 43.253906 48.953125 C 43.164062 48.953125 43.085938 48.875 43.085938 48.785156 L 43.085938 47.1875 C 43.085938 47.097656 43.164062 47.023438 43.253906 47.023438 Z M 43.253906 47.023438 " fill-opacity="1" fill-rule="nonzero"/><path fill="#445ea0" d="M 39.257812 45.578125 L 39.257812 39.777344 C 39.257812 39.503906 39.488281 39.273438 39.761719 39.273438 L 49.9375 39.273438 C 50.226562 39.273438 50.457031 39.503906 50.457031 39.777344 L 50.457031 45.578125 L 47.660156 45.746094 L 40.429688 45.714844 Z M 39.257812 45.578125 " fill-opacity="1" fill-rule="nonzero"/><path fill="#b7d7fe" d="M 39.957031 45.746094 L 39.957031 40.140625 C 39.957031 40.050781 40.035156 39.972656 40.125 39.972656 L 49.589844 39.972656 C 49.679688 39.972656 49.757812 40.050781 49.757812 40.140625 L 49.757812 45.929688 C 49.757812 46.003906 39.957031 46.066406 39.957031 45.746094 Z M 39.957031 45.746094 " fill-opacity="1" fill-rule="nonzero"/><path fill="#2e4c89" d="M 44.851562 47.355469 L 39.761719 47.355469 C 39.488281 47.355469 39.257812 47.113281 39.257812 46.839844 L 39.257812 45.578125 L 50.457031 45.578125 L 50.457031 46.839844 C 50.457031 47.113281 50.226562 47.355469 49.9375 47.355469 Z M 44.851562 47.355469 " fill-opacity="1" fill-rule="nonzero"/><path fill="#ed524e" d="M 40.277344 46.628906 C 40.066406 46.628906 40.066406 46.308594 40.277344 46.308594 C 40.367188 46.308594 40.550781 46.292969 40.550781 46.460938 C 40.550781 46.640625 40.367188 46.628906 40.277344 46.628906 Z M 40.277344 46.628906 " fill-opacity="1" fill-rule="nonzero"/><path fill="#43cb8e" d="M 41.097656 46.628906 C 40.886719 46.628906 40.886719 46.308594 41.097656 46.308594 C 41.1875 46.308594 41.371094 46.292969 41.371094 46.460938 C 41.371094 46.640625 41.1875 46.628906 41.097656 46.628906 Z M 41.097656 46.628906 " fill-opacity="1" fill-rule="nonzero"/><path fill="#9fc9fc" d="M 49.589844 39.972656 L 40.125 39.972656 C 40.035156 39.972656 39.957031 40.050781 39.957031 40.140625 L 39.957031 45.578125 L 49.695312 40.019531 C 49.664062 39.988281 49.636719 39.972656 49.589844 39.972656 Z M 49.589844 39.972656 " fill-opacity="1" fill-rule="nonzero"/><path fill="#2e4c89" d="M 42.160156 49.089844 C 41.765625 49.089844 41.765625 48.480469 42.160156 48.480469 L 47.539062 48.480469 C 47.933594 48.480469 47.933594 49.089844 47.539062 49.089844 Z M 42.160156 49.089844 " fill-opacity="1" fill-rule="nonzero"/><path fill="#687db3" d="M 35.886719 33.699219 L 39.09375 33.699219 C 39.183594 33.699219 39.257812 33.777344 39.257812 33.867188 L 39.257812 35.460938 C 39.257812 35.554688 39.183594 35.628906 39.09375 35.628906 L 35.886719 35.628906 C 35.796875 35.628906 35.71875 35.554688 35.71875 35.460938 L 35.71875 33.867188 C 35.71875 33.777344 35.796875 33.699219 35.886719 33.699219 Z M 35.886719 33.699219 " fill-opacity="1" fill-rule="nonzero"/><path fill="#445ea0" d="M 31.890625 32.257812 L 31.890625 26.453125 C 31.890625 26.179688 32.121094 25.953125 32.410156 25.953125 L 42.570312 25.953125 C 42.859375 25.953125 43.085938 26.179688 43.085938 26.453125 L 43.085938 32.257812 L 40.292969 32.4375 L 33.0625 32.394531 Z M 31.890625 32.257812 " fill-opacity="1" fill-rule="nonzero"/><path fill="#b7d7fe" d="M 32.589844 32.421875 L 32.589844 26.816406 C 32.589844 26.726562 32.667969 26.652344 32.757812 26.652344 L 42.222656 26.652344 C 42.3125 26.652344 42.390625 26.726562 42.390625 26.816406 L 42.390625 32.621094 C 42.390625 32.683594 32.589844 32.742188 32.589844 32.421875 Z M 32.589844 32.421875 " fill-opacity="1" fill-rule="nonzero"/><path fill="#2e4c89" d="M 37.480469 34.035156 L 32.410156 34.035156 C 32.121094 34.035156 31.890625 33.804688 31.890625 33.515625 L 31.890625 32.257812 L 43.085938 32.257812 L 43.085938 33.515625 C 43.085938 33.804688 42.859375 34.035156 42.570312 34.035156 Z M 37.480469 34.035156 " fill-opacity="1" fill-rule="nonzero"/><path fill="#ed524e" d="M 32.910156 33.304688 C 32.695312 33.304688 32.695312 32.984375 32.910156 32.984375 C 33 32.984375 33.183594 32.96875 33.183594 33.136719 C 33.183594 33.320312 33 33.304688 32.910156 33.304688 Z M 32.910156 33.304688 " fill-opacity="1" fill-rule="nonzero"/><path fill="#43cb8e" d="M 33.730469 33.304688 C 33.515625 33.304688 33.515625 32.984375 33.730469 32.984375 C 33.820312 32.984375 34.003906 32.96875 34.003906 33.136719 C 34.003906 33.320312 33.820312 33.304688 33.730469 33.304688 Z M 33.730469 33.304688 " fill-opacity="1" fill-rule="nonzero"/><path fill="#9fc9fc" d="M 42.222656 26.652344 L 32.757812 26.652344 C 32.667969 26.652344 32.589844 26.726562 32.589844 26.816406 L 32.589844 32.257812 L 42.328125 26.695312 C 42.296875 26.664062 42.265625 26.652344 42.222656 26.652344 Z M 42.222656 26.652344 " fill-opacity="1" fill-rule="nonzero"/><path fill="#2e4c89" d="M 34.792969 35.765625 C 34.398438 35.765625 34.398438 35.15625 34.792969 35.15625 L 40.171875 35.15625 C 40.566406 35.15625 40.566406 35.765625 40.171875 35.765625 Z M 34.792969 35.765625 " fill-opacity="1" fill-rule="nonzero"/><path fill="#ffffff" d="M 35.917969 28.335938 C 36.191406 28.046875 36.632812 28.472656 36.34375 28.761719 L 35.644531 29.445312 L 36.34375 30.144531 C 36.632812 30.433594 36.191406 30.859375 35.917969 30.570312 C 34.597656 29.261719 34.597656 29.644531 35.917969 28.335938 Z M 35.917969 28.335938 " fill-opacity="1" fill-rule="nonzero"/><path fill="#ffffff" d="M 38.636719 28.761719 C 38.347656 28.472656 38.773438 28.046875 39.0625 28.335938 C 40.367188 29.644531 40.367188 29.261719 39.0625 30.570312 C 38.773438 30.859375 38.347656 30.433594 38.636719 30.144531 L 39.320312 29.445312 Z M 38.636719 28.761719 " fill-opacity="1" fill-rule="nonzero"/><path fill="#ffffff" d="M 37.605469 27.851562 C 37.710938 27.472656 38.289062 27.621094 38.179688 28.019531 L 37.375 31.054688 C 37.269531 31.4375 36.675781 31.285156 36.785156 30.890625 Z M 37.605469 27.851562 " fill-opacity="1" fill-rule="nonzero"/><path fill="#ffffff" d="M 27.636719 44.667969 C 27.242188 44.667969 27.242188 44.058594 27.636719 44.058594 L 30.417969 44.058594 C 30.828125 44.058594 30.828125 44.667969 30.417969 44.667969 Z M 31.726562 44.667969 C 31.328125 44.667969 31.328125 44.058594 31.726562 44.058594 L 32.605469 44.058594 C 33 44.058594 33 44.667969 32.605469 44.667969 Z M 31.726562 44.667969 " fill-opacity="1" fill-rule="nonzero"/><path fill="#ffffff" d="M 27.636719 42.128906 C 27.242188 42.128906 27.242188 41.523438 27.636719 41.523438 L 30.417969 41.523438 C 30.828125 41.523438 30.828125 42.128906 30.417969 42.128906 Z M 31.726562 42.128906 C 31.328125 42.128906 31.328125 41.523438 31.726562 41.523438 L 32.605469 41.523438 C 33 41.523438 33 42.128906 32.605469 42.128906 Z M 31.726562 42.128906 " fill-opacity="1" fill-rule="nonzero"/><path fill="#ffffff" d="M 27.636719 43.40625 C 27.242188 43.40625 27.242188 42.800781 27.636719 42.800781 L 28.914062 42.800781 C 29.308594 42.800781 29.308594 43.40625 28.914062 43.40625 Z M 30.21875 43.40625 C 29.808594 43.40625 29.808594 42.800781 30.21875 42.800781 L 32.605469 42.800781 C 33 42.800781 33 43.40625 32.605469 43.40625 Z M 30.21875 43.40625 " fill-opacity="1" fill-rule="nonzero"/><path fill="#ffffff" d="M 42.375 44.546875 C 41.964844 44.546875 41.964844 43.9375 42.375 43.9375 L 45.152344 43.9375 C 45.546875 43.9375 45.546875 44.546875 45.152344 44.546875 Z M 46.460938 44.546875 C 46.066406 44.546875 46.066406 43.9375 46.460938 43.9375 L 47.339844 43.9375 C 47.734375 43.9375 47.734375 44.546875 47.339844 44.546875 Z M 46.460938 44.546875 " fill-opacity="1" fill-rule="nonzero"/><path fill="#ffffff" d="M 42.375 42.023438 C 41.964844 42.023438 41.964844 41.417969 42.375 41.417969 L 45.152344 41.417969 C 45.546875 41.417969 45.546875 42.023438 45.152344 42.023438 Z M 46.460938 42.023438 C 46.066406 42.023438 46.066406 41.417969 46.460938 41.417969 L 47.339844 41.417969 C 47.734375 41.417969 47.734375 42.023438 47.339844 42.023438 Z M 46.460938 42.023438 " fill-opacity="1" fill-rule="nonzero"/><path fill="#ffffff" d="M 42.375 43.285156 C 41.964844 43.285156 41.964844 42.675781 42.375 42.675781 L 43.648438 42.675781 C 44.042969 42.675781 44.042969 43.285156 43.648438 43.285156 Z M 44.941406 43.285156 C 44.546875 43.285156 44.546875 42.675781 44.941406 42.675781 L 47.339844 42.675781 C 47.734375 42.675781 47.734375 43.285156 47.339844 43.285156 Z M 44.941406 43.285156 " fill-opacity="1" fill-rule="nonzero"/></svg>