<svg xmlns="http://www.w3.org/2000/svg" xmlns:xlink="http://www.w3.org/1999/xlink" width="100" zoomAndPan="magnify" viewBox="0 0 75 74.999997" height="100" preserveAspectRatio="xMidYMid meet" version="1.0"><defs><clipPath id="19be4b4317"><path d="M 15.617188 24 L 37 24 L 37 33 L 15.617188 33 Z M 15.617188 24 " clip-rule="nonzero"/></clipPath><clipPath id="07a6691efa"><path d="M 39 27 L 59.117188 27 L 59.117188 49 L 39 49 Z M 39 27 " clip-rule="nonzero"/></clipPath><clipPath id="56f2b71e26"><path d="M 54 29 L 59.117188 29 L 59.117188 47 L 54 47 Z M 54 29 " clip-rule="nonzero"/></clipPath></defs><path fill="#b1b1b5" d="M 24.398438 47.421875 L 27.832031 47.421875 L 27.832031 49.1875 C 27.832031 49.769531 27.363281 50.242188 26.789062 50.242188 L 25.4375 50.242188 C 24.867188 50.242188 24.398438 49.769531 24.398438 49.1875 Z M 24.398438 47.421875 " fill-opacity="1" fill-rule="evenodd"/><path fill="#d1d1d6" d="M 23.328125 44.878906 L 28.898438 44.878906 L 28.898438 47.082031 C 28.898438 47.660156 28.429688 48.136719 27.855469 48.136719 L 24.371094 48.136719 C 23.796875 48.136719 23.328125 47.660156 23.328125 47.082031 Z M 23.328125 44.878906 " fill-opacity="1" fill-rule="evenodd"/><path fill="#b1b1b5" d="M 27.683594 46.027344 L 27.683594 47.082031 C 27.683594 47.199219 27.664062 47.316406 27.628906 47.421875 C 27.488281 47.835938 27.097656 48.136719 26.644531 48.136719 L 27.855469 48.136719 C 28.429688 48.136719 28.898438 47.660156 28.898438 47.082031 L 28.898438 46.027344 C 28.886719 46.027344 28.875 46.027344 28.863281 46.027344 Z M 27.683594 46.027344 " fill-opacity="1" fill-rule="evenodd"/><path fill="#eceff1" d="M 22.253906 42.871094 L 29.90625 42.871094 L 29.90625 44.976562 C 29.90625 45.554688 29.4375 46.027344 28.863281 46.027344 L 23.292969 46.027344 C 22.722656 46.027344 22.253906 45.554688 22.253906 44.976562 Z M 22.253906 42.871094 " fill-opacity="1" fill-rule="evenodd"/><path fill="#d1d1d6" d="M 28.691406 43.921875 L 28.691406 44.976562 C 28.691406 45.554688 28.222656 46.027344 27.652344 46.027344 L 28.863281 46.027344 C 28.875 46.027344 28.886719 46.027344 28.898438 46.027344 C 29.457031 46.007812 29.90625 45.542969 29.90625 44.976562 L 29.90625 43.921875 Z M 28.691406 43.921875 " fill-opacity="1" fill-rule="evenodd"/><path fill="#ffe177" d="M 26.078125 28.75 C 29.617188 28.75 32.488281 31.652344 32.488281 35.230469 C 32.488281 38.832031 30.214844 38.617188 29.90625 43.921875 L 22.253906 43.921875 C 21.945312 38.617188 19.671875 38.832031 19.671875 35.230469 C 19.671875 31.652344 22.539062 28.75 26.078125 28.75 Z M 26.078125 28.75 " fill-opacity="1" fill-rule="evenodd"/><path fill="#ffd064" d="M 25.472656 28.777344 C 28.726562 29.085938 31.273438 31.859375 31.273438 35.230469 C 31.273438 38.574219 29.3125 38.628906 28.785156 42.871094 C 28.746094 43.195312 28.714844 43.542969 28.691406 43.921875 L 29.90625 43.921875 C 30.214844 38.617188 32.488281 38.832031 32.488281 35.230469 C 32.488281 31.652344 29.617188 28.75 26.078125 28.75 C 25.875 28.75 25.671875 28.757812 25.472656 28.777344 Z M 25.472656 28.777344 " fill-opacity="1" fill-rule="evenodd"/><path fill="#ffc338" d="M 24.488281 43.921875 L 24.488281 37.277344 L 23.484375 37.277344 C 22.398438 37.277344 21.507812 36.378906 21.507812 35.277344 C 21.507812 34.179688 22.398438 33.28125 23.484375 33.28125 C 24.027344 33.28125 24.519531 33.507812 24.878906 33.867188 C 25.234375 34.230469 25.457031 34.730469 25.457031 35.277344 L 25.457031 36.292969 L 26.699219 36.292969 L 26.699219 35.277344 C 26.699219 34.179688 27.589844 33.28125 28.675781 33.28125 C 29.21875 33.28125 29.710938 33.507812 30.070312 33.867188 C 30.425781 34.230469 30.648438 34.730469 30.648438 35.277344 C 30.648438 35.828125 30.425781 36.328125 30.070312 36.6875 C 29.710938 37.050781 29.21875 37.277344 28.675781 37.277344 L 27.671875 37.277344 L 27.671875 43.921875 L 26.699219 43.921875 L 26.699219 37.277344 L 25.457031 37.277344 L 25.457031 43.921875 Z M 24.488281 36.292969 L 24.488281 35.277344 C 24.488281 35 24.375 34.746094 24.191406 34.5625 C 24.007812 34.378906 23.757812 34.261719 23.484375 34.261719 C 22.929688 34.261719 22.480469 34.71875 22.480469 35.277344 C 22.480469 35.835938 22.929688 36.292969 23.484375 36.292969 Z M 27.671875 36.292969 L 28.675781 36.292969 C 28.949219 36.292969 29.199219 36.179688 29.382812 35.996094 C 29.566406 35.8125 29.679688 35.558594 29.679688 35.277344 C 29.679688 35 29.566406 34.746094 29.382812 34.5625 C 29.199219 34.378906 28.949219 34.261719 28.675781 34.261719 C 28.121094 34.261719 27.671875 34.71875 27.671875 35.277344 Z M 27.671875 36.292969 " fill-opacity="1" fill-rule="evenodd"/><g clip-path="url(#19be4b4317)"><path fill="#ffe177" d="M 26.769531 26.558594 C 26.769531 26.945312 26.460938 27.253906 26.078125 27.253906 C 25.699219 27.253906 25.390625 26.945312 25.390625 26.558594 L 25.390625 25.03125 C 25.390625 24.648438 25.699219 24.335938 26.078125 24.335938 C 26.460938 24.335938 26.769531 24.648438 26.769531 25.03125 Z M 34.792969 32.046875 C 34.464844 32.242188 34.046875 32.128906 33.855469 31.796875 C 33.664062 31.464844 33.777344 31.039062 34.105469 30.84375 L 35.414062 30.082031 C 35.742188 29.890625 36.160156 30.003906 36.351562 30.335938 C 36.542969 30.667969 36.429688 31.09375 36.101562 31.285156 Z M 31.507812 28.21875 C 31.316406 28.550781 30.894531 28.664062 30.566406 28.46875 C 30.238281 28.277344 30.125 27.851562 30.316406 27.519531 L 31.070312 26.199219 C 31.261719 25.867188 31.683594 25.753906 32.011719 25.945312 C 32.339844 26.136719 32.453125 26.5625 32.261719 26.894531 Z M 18.050781 30.84375 C 18.382812 31.039062 18.492188 31.464844 18.304688 31.796875 C 18.113281 32.128906 17.691406 32.242188 17.363281 32.046875 L 16.054688 31.285156 C 15.726562 31.09375 15.617188 30.667969 15.804688 30.335938 C 15.996094 30.003906 16.417969 29.890625 16.746094 30.082031 Z M 21.839844 27.519531 C 22.03125 27.851562 21.917969 28.277344 21.589844 28.46875 C 21.261719 28.664062 20.839844 28.550781 20.652344 28.21875 L 19.898438 26.894531 C 19.707031 26.5625 19.820312 26.136719 20.148438 25.945312 C 20.476562 25.753906 20.894531 25.867188 21.085938 26.199219 Z M 21.839844 27.519531 " fill-opacity="1" fill-rule="evenodd"/></g><g clip-path="url(#07a6691efa)"><path fill="#8ac9fe" d="M 50.976562 30.84375 C 51.652344 31.015625 52.289062 31.289062 52.875 31.636719 L 55.25 29.898438 L 57.152344 31.820312 L 55.433594 34.226562 C 55.78125 34.820312 56.046875 35.464844 56.21875 36.148438 L 59.117188 36.617188 L 59.117188 39.335938 L 56.21875 39.808594 C 56.046875 40.492188 55.78125 41.136719 55.433594 41.726562 L 57.152344 44.132812 L 55.25 46.058594 L 52.875 44.316406 C 52.289062 44.667969 51.652344 44.9375 50.976562 45.113281 L 50.511719 48.042969 L 47.820312 48.042969 L 47.355469 45.113281 C 46.679688 44.9375 46.042969 44.667969 45.457031 44.316406 L 43.082031 46.058594 L 41.179688 44.132812 L 42.898438 41.726562 C 42.554688 41.136719 42.285156 40.492188 42.113281 39.808594 L 39.214844 39.335938 L 39.214844 36.617188 L 42.113281 36.148438 C 42.285156 35.464844 42.554688 34.816406 42.898438 34.226562 L 41.179688 31.820312 L 43.082031 29.898438 L 45.457031 31.636719 C 46.042969 31.289062 46.679688 31.015625 47.359375 30.839844 L 47.820312 27.910156 L 50.511719 27.910156 Z M 50.976562 30.84375 " fill-opacity="1" fill-rule="evenodd"/></g><g clip-path="url(#56f2b71e26)"><path fill="#60b7ff" d="M 55.347656 39.808594 C 55.175781 40.492188 54.910156 41.136719 54.5625 41.726562 L 56.28125 44.132812 L 54.746094 45.6875 L 55.25 46.054688 L 57.152344 44.132812 L 55.433594 41.726562 C 55.78125 41.136719 56.046875 40.492188 56.21875 39.808594 L 59.117188 39.335938 L 59.117188 36.617188 L 56.21875 36.148438 C 56.046875 35.464844 55.78125 34.816406 55.433594 34.226562 L 57.152344 31.820312 L 55.25 29.898438 L 54.746094 30.265625 L 56.28125 31.820312 L 54.5625 34.226562 C 54.910156 34.816406 55.175781 35.464844 55.347656 36.148438 L 58.246094 36.617188 L 58.246094 39.335938 Z M 55.347656 39.808594 " fill-opacity="1" fill-rule="evenodd"/></g><path fill="#eceff1" d="M 50.6875 34.261719 C 50.929688 34.363281 51.15625 34.484375 51.375 34.632812 C 51.59375 34.78125 51.792969 34.945312 51.976562 35.132812 C 52.160156 35.320312 52.328125 35.523438 52.472656 35.742188 C 52.617188 35.960938 52.738281 36.195312 52.839844 36.4375 C 52.9375 36.679688 53.015625 36.933594 53.066406 37.191406 C 53.117188 37.449219 53.140625 37.710938 53.140625 37.976562 C 53.140625 38.238281 53.117188 38.5 53.066406 38.761719 C 53.015625 39.019531 52.9375 39.269531 52.839844 39.515625 C 52.738281 39.757812 52.617188 39.992188 52.472656 40.210938 C 52.328125 40.429688 52.160156 40.632812 51.976562 40.820312 C 51.792969 41.003906 51.59375 41.171875 51.375 41.320312 C 51.15625 41.464844 50.929688 41.589844 50.6875 41.691406 C 50.445312 41.792969 50.199219 41.867188 49.941406 41.917969 C 49.6875 41.972656 49.425781 41.996094 49.167969 41.996094 C 48.90625 41.996094 48.648438 41.972656 48.390625 41.917969 C 48.136719 41.867188 47.886719 41.792969 47.644531 41.691406 C 47.402344 41.589844 47.175781 41.464844 46.957031 41.320312 C 46.742188 41.171875 46.539062 41.003906 46.355469 40.820312 C 46.171875 40.632812 46.007812 40.429688 45.863281 40.210938 C 45.714844 39.992188 45.59375 39.757812 45.496094 39.515625 C 45.394531 39.269531 45.320312 39.019531 45.269531 38.761719 C 45.21875 38.5 45.191406 38.238281 45.191406 37.976562 C 45.191406 37.710938 45.21875 37.449219 45.269531 37.191406 C 45.320312 36.933594 45.394531 36.679688 45.496094 36.4375 C 45.59375 36.195312 45.714844 35.960938 45.863281 35.742188 C 46.007812 35.523438 46.171875 35.320312 46.355469 35.132812 C 46.539062 34.945312 46.742188 34.78125 46.957031 34.632812 C 47.175781 34.484375 47.402344 34.363281 47.644531 34.261719 C 47.886719 34.160156 48.136719 34.085938 48.390625 34.03125 C 48.648438 33.980469 48.90625 33.957031 49.167969 33.957031 C 49.425781 33.957031 49.6875 33.980469 49.941406 34.03125 C 50.199219 34.085938 50.445312 34.160156 50.6875 34.261719 Z M 50.6875 34.261719 " fill-opacity="1" fill-rule="nonzero"/><path fill="#d1d1d6" d="M 46.0625 37.976562 C 46.0625 40.046875 47.609375 41.753906 49.601562 41.972656 C 49.457031 41.988281 49.3125 41.996094 49.167969 41.996094 C 46.972656 41.996094 45.191406 40.199219 45.191406 37.976562 C 45.191406 37.34375 45.335938 36.746094 45.59375 36.214844 C 46.238281 34.878906 47.597656 33.957031 49.167969 33.957031 C 49.3125 33.957031 49.457031 33.964844 49.601562 33.980469 C 48.03125 34.152344 46.738281 35.25 46.261719 36.722656 C 46.132812 37.117188 46.0625 37.539062 46.0625 37.976562 Z M 46.0625 37.976562 " fill-opacity="1" fill-rule="evenodd"/><path fill="#6cf5c2" d="M 36.246094 53.085938 L 37.023438 51.726562 C 37.074219 51.636719 37.070312 51.535156 37.015625 51.449219 C 36.964844 51.367188 36.871094 51.324219 36.773438 51.335938 L 31.117188 51.960938 C 30.980469 51.976562 30.871094 52.046875 30.796875 52.164062 C 30.726562 52.28125 30.710938 52.414062 30.761719 52.542969 L 32.816406 58.238281 C 32.851562 58.335938 32.933594 58.402344 33.039062 58.410156 C 33.140625 58.417969 33.230469 58.371094 33.285156 58.28125 L 34 57.023438 C 40.578125 60.867188 47.566406 57.621094 48.375 52.640625 C 44.941406 56.1875 38.5625 54.4375 36.246094 53.085938 Z M 36.246094 53.085938 " fill-opacity="1" fill-rule="evenodd"/><path fill="#00e499" d="M 33.28125 58.28125 L 34 57.023438 C 40.050781 60.558594 46.453125 58.09375 48.066406 53.796875 C 46.894531 55.746094 44.59375 57.15625 42.542969 57.730469 C 39.75 58.511719 36.796875 57.921875 34.316406 56.472656 L 33.769531 56.152344 L 33.320312 56.9375 C 33.285156 57 33.222656 57.03125 33.15625 57.023438 C 33.085938 57.019531 33.03125 56.976562 33.007812 56.910156 C 32.410156 55.257812 31.816406 53.605469 31.21875 51.953125 L 31.117188 51.960938 C 30.980469 51.976562 30.871094 52.046875 30.796875 52.164062 C 30.726562 52.285156 30.710938 52.414062 30.761719 52.546875 L 32.816406 58.238281 C 32.851562 58.335938 32.933594 58.402344 33.039062 58.410156 C 33.140625 58.417969 33.230469 58.371094 33.28125 58.28125 Z M 33.28125 58.28125 " fill-opacity="1" fill-rule="evenodd"/><path fill="#fe646f" d="M 42.726562 22.152344 L 41.949219 23.515625 C 41.898438 23.605469 41.902344 23.707031 41.957031 23.789062 C 42.011719 23.875 42.101562 23.917969 42.199219 23.90625 L 47.855469 23.277344 C 47.992188 23.265625 48.101562 23.191406 48.175781 23.074219 C 48.246094 22.957031 48.261719 22.828125 48.214844 22.695312 L 46.15625 17.003906 C 46.121094 16.90625 46.039062 16.839844 45.9375 16.832031 C 45.832031 16.824219 45.742188 16.871094 45.691406 16.960938 L 44.972656 18.214844 C 38.394531 14.375 31.40625 17.621094 30.597656 22.601562 C 34.03125 19.054688 40.410156 20.800781 42.726562 22.152344 Z M 42.726562 22.152344 " fill-opacity="1" fill-rule="evenodd"/><path fill="#fd4755" d="M 42.953125 22.859375 L 43.585938 21.75 C 41.570312 20.570312 36.460938 19.089844 32.910156 21.082031 C 36.378906 19.726562 40.867188 21.066406 42.726562 22.152344 L 41.949219 23.515625 C 41.898438 23.605469 41.902344 23.707031 41.957031 23.789062 C 42.011719 23.875 42.101562 23.917969 42.199219 23.90625 L 47.855469 23.277344 C 47.992188 23.265625 48.101562 23.191406 48.175781 23.074219 C 48.246094 22.957031 48.261719 22.828125 48.214844 22.695312 L 48.210938 22.695312 L 43.203125 23.25 C 43.105469 23.261719 43.015625 23.21875 42.960938 23.132812 C 42.90625 23.046875 42.902344 22.945312 42.953125 22.859375 Z M 42.953125 22.859375 " fill-opacity="1" fill-rule="evenodd"/></svg>