<svg xmlns="http://www.w3.org/2000/svg" xmlns:xlink="http://www.w3.org/1999/xlink" width="100" zoomAndPan="magnify" viewBox="0 0 75 74.999997" height="100" preserveAspectRatio="xMidYMid meet" version="1.0"><defs><clipPath id="e10652661d"><path d="M 44 52 L 58 52 L 58 59.605469 L 44 59.605469 Z M 44 52 " clip-rule="nonzero"/></clipPath><clipPath id="5e569357eb"><path d="M 42 52 L 55 52 L 55 59.605469 L 42 59.605469 Z M 42 52 " clip-rule="nonzero"/></clipPath><clipPath id="3709deeb75"><path d="M 33.855469 18.683594 L 59.410156 18.683594 L 59.410156 46.347656 L 33.855469 46.347656 Z M 33.855469 18.683594 " clip-rule="nonzero"/></clipPath><clipPath id="7152f6754b"><path d="M 39.199219 36.1875 L 59.410156 36.1875 L 59.410156 46.347656 L 39.199219 46.347656 Z M 39.199219 36.1875 " clip-rule="nonzero"/></clipPath><clipPath id="0562137ab1"><path d="M 18 15.355469 L 32 15.355469 L 32 23 L 18 23 Z M 18 15.355469 " clip-rule="nonzero"/></clipPath><clipPath id="eaa50bc9a4"><path d="M 20 15.355469 L 34 15.355469 L 34 23 L 20 23 Z M 20 15.355469 " clip-rule="nonzero"/></clipPath><clipPath id="1aa320d2be"><path d="M 23.082031 57 L 24.203125 57 L 24.203125 59.605469 L 23.082031 59.605469 Z M 23.082031 57 " clip-rule="nonzero"/></clipPath><clipPath id="4a1e9afc1c"><path d="M 52 15.355469 L 54 15.355469 L 54 19 L 52 19 Z M 52 15.355469 " clip-rule="nonzero"/></clipPath></defs><path fill="#efc8a8" d="M 43.125 45.988281 L 42.960938 37.972656 C 45.824219 37.941406 49.554688 37.335938 52.773438 37.074219 C 52.769531 36.800781 52.800781 36.527344 52.871094 36.257812 C 52.9375 36.011719 53.035156 35.777344 53.167969 35.558594 C 53.652344 34.824219 54.949219 34.539062 55.429688 35.398438 L 57.839844 42.253906 L 56.503906 47.390625 C 56.449219 47.597656 56.359375 47.800781 56.238281 47.980469 C 56.238281 47.980469 55.8125 48.667969 55.40625 49.269531 L 44.636719 49.28125 C 43.699219 48.433594 43.15625 47.242188 43.125 45.988281 " fill-opacity="1" fill-rule="nonzero"/><path fill="#d4d0e3" d="M 56.234375 52.4375 C 56.238281 52.738281 55.917969 52.984375 55.519531 52.988281 L 54.121094 52.996094 L 44.320312 53.074219 C 43.921875 53.078125 43.597656 52.839844 43.59375 52.539062 L 43.554688 49.746094 C 43.550781 49.445312 43.867188 49.199219 44.265625 49.195312 L 54.121094 49.117188 L 55.464844 49.109375 C 55.863281 49.105469 56.1875 49.34375 56.195312 49.644531 L 56.234375 52.4375 " fill-opacity="1" fill-rule="nonzero"/><path fill="#b5b2c7" d="M 56.234375 52.4375 C 56.238281 52.738281 55.917969 52.984375 55.519531 52.988281 L 54.121094 52.996094 L 54.121094 49.117188 L 55.464844 49.109375 C 55.863281 49.105469 56.1875 49.34375 56.195312 49.644531 L 56.234375 52.4375 " fill-opacity="1" fill-rule="nonzero"/><g clip-path="url(#e10652661d)"><path fill="#f79613" d="M 57.441406 59.507812 L 44.585938 59.507812 C 48.921875 59.507812 52.71875 57.15625 54.816406 52.964844 L 57.34375 52.941406 L 57.441406 59.507812 " fill-opacity="1" fill-rule="nonzero"/></g><g clip-path="url(#5e569357eb)"><path fill="#fab317" d="M 54.816406 52.960938 C 52.71875 57.15625 48.921875 59.507812 44.585938 59.507812 L 42.59375 59.507812 L 42.496094 53.0625 L 54.816406 52.960938 " fill-opacity="1" fill-rule="nonzero"/></g><g clip-path="url(#3709deeb75)"><path fill="#fab317" d="M 38.898438 39.855469 L 41.746094 46.277344 L 58.441406 39.007812 C 59.257812 38.652344 59.632812 37.707031 59.273438 36.894531 L 52.050781 20.617188 L 45.316406 23.550781 C 45.183594 23.605469 45.023438 23.542969 44.964844 23.410156 C 44.945312 23.367188 44.941406 23.316406 44.945312 23.269531 C 45.035156 22.574219 45.117188 21.25 44.648438 20.40625 C 43.769531 18.847656 41.785156 18.292969 40.210938 19.164062 C 38.640625 20.03125 38.078125 22 38.957031 23.554688 C 39.375 24.300781 40.078125 24.851562 40.902344 25.085938 C 41.011719 25.117188 41.074219 25.226562 41.042969 25.332031 C 41.023438 25.390625 40.984375 25.4375 40.929688 25.460938 L 33.875 28.53125 C 34.199219 29.269531 36.230469 33.839844 36.964844 35.507812 C 37.011719 35.609375 37.132812 35.65625 37.234375 35.609375 C 37.289062 35.585938 37.332031 35.539062 37.347656 35.484375 C 37.84375 33.769531 39.648438 32.777344 41.378906 33.269531 C 43.109375 33.757812 44.109375 35.546875 43.613281 37.261719 C 43.375 38.082031 42.820312 38.773438 42.070312 39.191406 C 41.21875 39.65625 39.882812 39.574219 39.175781 39.484375 C 39.027344 39.46875 38.894531 39.570312 38.878906 39.714844 C 38.871094 39.761719 38.878906 39.8125 38.898438 39.855469 " fill-opacity="1" fill-rule="nonzero"/></g><g clip-path="url(#7152f6754b)"><path fill="#f79613" d="M 39.25 40.652344 L 41.746094 46.277344 L 58.441406 39.007812 C 59.257812 38.652344 59.632812 37.707031 59.273438 36.894531 L 58.988281 36.257812 C 58.273438 36.625 57.539062 36.96875 56.789062 37.296875 C 51.273438 39.707031 45.277344 40.855469 39.25 40.652344 " fill-opacity="1" fill-rule="nonzero"/></g><path fill="#efc8a8" d="M 51.113281 44.132812 C 51.289062 43.761719 51.5 43.355469 51.742188 42.929688 C 52.4375 41.722656 53.652344 41.230469 53.652344 41.230469 C 53.652344 41.230469 53.128906 38.089844 52.960938 37.042969 C 52.84375 36.304688 52.984375 35.554688 53.355469 34.90625 C 53.867188 34.125 55.199219 33.796875 55.671875 34.691406 L 57.996094 41.882812 L 56.535156 47.328125 " fill-opacity="1" fill-rule="nonzero"/><path fill="#efc8a8" d="M 32.511719 29.902344 L 32.675781 37.917969 C 29.8125 37.949219 26.082031 38.550781 22.867188 38.8125 C 22.871094 39.089844 22.835938 39.363281 22.765625 39.628906 C 22.703125 39.875 22.601562 40.109375 22.472656 40.328125 C 21.988281 41.0625 20.6875 41.347656 20.207031 40.492188 L 17.800781 33.632812 L 19.132812 28.5 C 19.1875 28.289062 19.277344 28.089844 19.398438 27.910156 C 19.398438 27.910156 19.824219 27.21875 20.230469 26.617188 L 31.003906 26.609375 C 31.9375 27.457031 32.484375 28.644531 32.511719 29.902344 " fill-opacity="1" fill-rule="nonzero"/><path fill="#d4d0e3" d="M 32.085938 26.144531 L 32.046875 23.351562 C 32.042969 23.050781 31.714844 22.808594 31.316406 22.8125 L 20.117188 22.902344 C 19.71875 22.90625 19.402344 23.152344 19.40625 23.449219 L 19.445312 26.242188 C 19.449219 26.542969 19.773438 26.785156 20.171875 26.78125 L 31.371094 26.691406 C 31.769531 26.6875 32.089844 26.441406 32.085938 26.144531 " fill-opacity="1" fill-rule="nonzero"/><path fill="#b5b2c7" d="M 21.515625 26.753906 L 19.941406 26.753906 C 19.644531 26.753906 19.402344 26.515625 19.402344 26.21875 L 19.402344 23.574219 C 19.402344 23.21875 19.695312 22.929688 20.054688 22.929688 L 21.515625 22.929688 L 21.515625 26.753906 " fill-opacity="1" fill-rule="nonzero"/><g clip-path="url(#0562137ab1)"><path fill="#4bc3ca" d="M 18.195312 15.355469 L 31.054688 15.355469 C 26.71875 15.355469 22.917969 18.730469 20.820312 22.925781 L 18.292969 22.945312 L 18.195312 15.355469 " fill-opacity="1" fill-rule="nonzero"/></g><g clip-path="url(#eaa50bc9a4)"><path fill="#54c7de" d="M 20.820312 22.925781 C 22.917969 18.730469 26.71875 15.355469 31.054688 15.355469 L 33.046875 15.355469 L 33.144531 22.828125 L 20.820312 22.925781 " fill-opacity="1" fill-rule="nonzero"/></g><path fill="#d41f31" d="M 43.53125 35.382812 C 43.988281 36.832031 43.363281 38.402344 42.03125 39.15625 C 41.183594 39.628906 39.847656 39.554688 39.136719 39.46875 C 38.992188 39.453125 38.859375 39.554688 38.839844 39.699219 C 38.835938 39.75 38.84375 39.796875 38.863281 39.839844 L 41.414062 45.488281 C 41.675781 46.066406 41.414062 46.738281 40.835938 46.996094 C 40.835938 46.996094 40.835938 47 40.835938 47 C 39.171875 47.734375 36.15625 49.074219 34.867188 49.644531 C 34.765625 49.691406 34.644531 49.644531 34.601562 49.542969 C 34.574219 49.488281 34.574219 49.425781 34.601562 49.371094 C 35.398438 47.773438 34.730469 45.835938 33.117188 45.050781 C 31.5 44.261719 29.546875 44.921875 28.753906 46.523438 C 28.371094 47.289062 28.3125 48.171875 28.589844 48.980469 C 28.902344 49.894531 29.949219 50.71875 30.53125 51.125 C 30.652344 51.207031 30.683594 51.375 30.601562 51.492188 C 30.574219 51.53125 30.535156 51.5625 30.492188 51.582031 L 23.777344 54.558594 L 16.328125 38.070312 C 15.964844 37.261719 16.328125 36.3125 17.144531 35.949219 L 32.890625 28.96875 C 33.378906 28.753906 33.953125 28.96875 34.171875 29.453125 C 34.171875 29.457031 34.171875 29.457031 34.171875 29.457031 C 34.902344 31.070312 36.3125 34.191406 36.902344 35.503906 C 36.949219 35.605469 37.066406 35.652344 37.171875 35.605469 C 37.226562 35.582031 37.265625 35.535156 37.285156 35.480469 C 37.765625 33.761719 39.566406 32.757812 41.296875 33.238281 C 42.363281 33.53125 43.203125 34.335938 43.53125 35.382812 " fill-opacity="1" fill-rule="nonzero"/><path fill="#c21c2e" d="M 42.03125 39.15625 C 41.183594 39.628906 39.847656 39.554688 39.140625 39.46875 C 38.992188 39.453125 38.859375 39.554688 38.839844 39.703125 C 38.835938 39.75 38.84375 39.796875 38.863281 39.839844 L 41.414062 45.488281 C 41.675781 46.066406 41.414062 46.742188 40.835938 47 C 39.171875 47.734375 36.15625 49.074219 34.867188 49.644531 C 34.765625 49.691406 34.644531 49.644531 34.597656 49.542969 C 34.574219 49.488281 34.574219 49.425781 34.601562 49.375 C 35.398438 47.773438 34.730469 45.835938 33.117188 45.050781 C 31.5 44.261719 29.546875 44.921875 28.753906 46.523438 C 28.371094 47.289062 28.3125 48.171875 28.589844 48.980469 C 28.902344 49.894531 29.949219 50.722656 30.53125 51.125 C 30.65625 51.210938 30.683594 51.375 30.601562 51.492188 C 30.574219 51.53125 30.535156 51.5625 30.488281 51.582031 L 23.777344 54.558594 L 22.027344 50.683594 C 27.707031 46.546875 31.492188 39.15625 31.492188 30.726562 C 31.492188 30.347656 31.484375 29.972656 31.46875 29.597656 L 32.886719 28.96875 C 33.378906 28.753906 33.953125 28.96875 34.171875 29.453125 C 34.898438 31.070312 36.3125 34.191406 36.902344 35.503906 C 36.949219 35.605469 37.066406 35.652344 37.171875 35.605469 C 37.226562 35.582031 37.265625 35.535156 37.285156 35.476562 C 37.769531 33.761719 39.566406 32.757812 41.300781 33.238281 C 43.035156 33.71875 44.046875 35.5 43.5625 37.21875 C 43.328125 38.039062 42.78125 38.734375 42.03125 39.15625 " fill-opacity="1" fill-rule="nonzero"/><path fill="#efc8a8" d="M 24.523438 31.753906 C 24.347656 32.125 24.140625 32.535156 23.894531 32.957031 C 23.203125 34.164062 21.984375 34.65625 21.984375 34.65625 C 21.984375 34.65625 22.511719 37.796875 22.675781 38.847656 C 22.792969 39.582031 22.652344 40.335938 22.28125 40.980469 C 21.773438 41.765625 20.441406 42.089844 19.964844 41.195312 L 17.640625 34.003906 L 19.105469 28.5625 " fill-opacity="1" fill-rule="nonzero"/><path fill="#7a7d82" d="M 26.3125 55.957031 L 27.230469 55.488281 L 28.425781 57.785156 L 27.507812 58.253906 L 26.3125 55.957031 " fill-opacity="1" fill-rule="nonzero"/><path fill="#7a7d82" d="M 18.867188 57.785156 L 20.0625 55.488281 L 20.980469 55.957031 L 19.785156 58.253906 L 18.867188 57.785156 " fill-opacity="1" fill-rule="nonzero"/><g clip-path="url(#1aa320d2be)"><path fill="#7a7d82" d="M 23.097656 59.582031 L 23.164062 57 L 24.195312 57.027344 L 24.128906 59.609375 L 23.097656 59.582031 " fill-opacity="1" fill-rule="nonzero"/></g><path fill="#7a7d82" d="M 48.195312 17.28125 L 49.117188 16.808594 L 50.308594 19.105469 L 49.390625 19.574219 L 48.195312 17.28125 " fill-opacity="1" fill-rule="nonzero"/><path fill="#7a7d82" d="M 55.640625 19.105469 L 56.835938 16.808594 L 57.753906 17.28125 L 56.558594 19.574219 L 55.640625 19.105469 " fill-opacity="1" fill-rule="nonzero"/><g clip-path="url(#4a1e9afc1c)"><path fill="#7a7d82" d="M 52.425781 18.035156 L 52.492188 15.457031 L 53.523438 15.480469 L 53.460938 18.0625 L 52.425781 18.035156 " fill-opacity="1" fill-rule="nonzero"/></g></svg>