<svg xmlns="http://www.w3.org/2000/svg" xmlns:xlink="http://www.w3.org/1999/xlink" width="100" zoomAndPan="magnify" viewBox="0 0 75 74.999997" height="100" preserveAspectRatio="xMidYMid meet" version="1.0"><defs><clipPath id="2a83ffd1cc"><path d="M 15.457031 18.128906 L 59.707031 18.128906 L 59.707031 45 L 15.457031 45 Z M 15.457031 18.128906 " clip-rule="nonzero"/></clipPath><clipPath id="5c9807cff9"><path d="M 15.457031 18.128906 L 23 18.128906 L 23 25 L 15.457031 25 Z M 15.457031 18.128906 " clip-rule="nonzero"/></clipPath><clipPath id="8be74a2c0e"><path d="M 42 45 L 53 45 L 53 57.128906 L 42 57.128906 Z M 42 45 " clip-rule="nonzero"/></clipPath></defs><g clip-path="url(#2a83ffd1cc)"><path fill="#5bcbfa" d="M 58.167969 44.894531 L 16.996094 44.894531 C 16.792969 44.894531 16.597656 44.855469 16.414062 44.777344 C 16.226562 44.699219 16.0625 44.589844 15.917969 44.445312 C 15.773438 44.304688 15.664062 44.136719 15.585938 43.949219 C 15.511719 43.761719 15.472656 43.566406 15.472656 43.363281 L 15.472656 24.246094 L 22.332031 18.128906 L 58.167969 18.128906 C 58.371094 18.128906 58.566406 18.167969 58.753906 18.246094 C 58.9375 18.324219 59.105469 18.433594 59.246094 18.578125 C 59.390625 18.722656 59.5 18.886719 59.578125 19.074219 C 59.65625 19.261719 59.691406 19.457031 59.691406 19.660156 L 59.691406 43.363281 C 59.691406 43.566406 59.65625 43.761719 59.578125 43.949219 C 59.5 44.136719 59.390625 44.304688 59.246094 44.445312 C 59.105469 44.589844 58.9375 44.699219 58.753906 44.777344 C 58.566406 44.855469 58.371094 44.894531 58.167969 44.894531 Z M 58.167969 44.894531 " fill-opacity="1" fill-rule="nonzero"/></g><g clip-path="url(#5c9807cff9)"><path fill="#3780ea" d="M 22.332031 18.128906 L 22.332031 22.71875 C 22.332031 22.921875 22.292969 23.117188 22.21875 23.304688 C 22.140625 23.492188 22.03125 23.65625 21.886719 23.800781 C 21.742188 23.941406 21.578125 24.054688 21.390625 24.132812 C 21.207031 24.207031 21.011719 24.246094 20.808594 24.246094 L 15.472656 24.246094 Z M 22.332031 18.128906 " fill-opacity="1" fill-rule="nonzero"/></g><g clip-path="url(#8be74a2c0e)"><path fill="#ffe027" d="M 42.917969 45.660156 L 52.070312 45.660156 L 52.070312 57.128906 L 47.492188 53.304688 L 42.917969 57.128906 Z M 42.917969 45.660156 " fill-opacity="1" fill-rule="nonzero"/></g><path fill="#f24e58" d="M 56.382812 41.835938 C 56.382812 42.976562 55.191406 43.871094 54.78125 44.863281 C 54.359375 45.890625 54.554688 47.367188 53.785156 48.140625 C 53.011719 48.914062 51.535156 48.71875 50.511719 49.144531 C 49.519531 49.554688 48.632812 50.75 47.492188 50.75 C 46.355469 50.75 45.464844 49.550781 44.476562 49.144531 C 43.453125 48.714844 41.980469 48.914062 41.207031 48.140625 C 40.433594 47.367188 40.632812 45.890625 40.207031 44.863281 C 39.796875 43.867188 38.605469 42.976562 38.605469 41.835938 C 38.605469 40.695312 39.800781 39.800781 40.207031 38.808594 C 40.632812 37.78125 40.4375 36.304688 41.207031 35.53125 C 41.980469 34.757812 43.453125 34.953125 44.476562 34.527344 C 45.46875 34.117188 46.355469 32.921875 47.492188 32.921875 C 48.632812 32.921875 49.523438 34.121094 50.511719 34.527344 C 51.535156 34.953125 53.007812 34.757812 53.78125 35.53125 C 54.554688 36.304688 54.355469 37.78125 54.78125 38.808594 C 55.191406 39.800781 56.382812 40.695312 56.382812 41.835938 Z M 56.382812 41.835938 " fill-opacity="1" fill-rule="nonzero"/><path fill="#f24e58" d="M 56.382812 41.835938 C 56.382812 42.976562 55.191406 43.871094 54.78125 44.863281 C 54.359375 45.890625 54.554688 47.367188 53.785156 48.140625 C 53.011719 48.914062 51.535156 48.71875 50.511719 49.144531 C 49.519531 49.554688 48.632812 50.75 47.492188 50.75 C 46.355469 50.75 45.464844 49.550781 44.476562 49.144531 C 43.453125 48.714844 41.980469 48.914062 41.207031 48.140625 C 40.433594 47.367188 40.632812 45.890625 40.207031 44.863281 C 39.796875 43.867188 38.605469 42.976562 38.605469 41.835938 C 38.605469 40.695312 39.800781 39.800781 40.207031 38.808594 C 40.632812 37.78125 40.4375 36.304688 41.207031 35.53125 C 41.980469 34.757812 43.453125 34.953125 44.476562 34.527344 C 45.46875 34.117188 46.355469 32.921875 47.492188 32.921875 C 48.632812 32.921875 49.523438 34.121094 50.511719 34.527344 C 51.535156 34.953125 53.007812 34.757812 53.78125 35.53125 C 54.554688 36.304688 54.355469 37.78125 54.78125 38.808594 C 55.191406 39.800781 56.382812 40.695312 56.382812 41.835938 Z M 56.382812 41.835938 " fill-opacity="1" fill-rule="nonzero"/><path fill="#e9e9ea" d="M 52.070312 41.835938 C 52.070312 42.136719 52.039062 42.433594 51.980469 42.730469 C 51.921875 43.027344 51.835938 43.3125 51.71875 43.589844 C 51.605469 43.871094 51.464844 44.132812 51.296875 44.386719 C 51.132812 44.636719 50.941406 44.867188 50.730469 45.082031 C 50.515625 45.292969 50.285156 45.484375 50.035156 45.652344 C 49.785156 45.816406 49.523438 45.960938 49.246094 46.074219 C 48.96875 46.191406 48.679688 46.277344 48.386719 46.335938 C 48.09375 46.394531 47.792969 46.425781 47.492188 46.425781 C 47.195312 46.425781 46.894531 46.394531 46.601562 46.335938 C 46.308594 46.277344 46.019531 46.191406 45.742188 46.074219 C 45.464844 45.960938 45.203125 45.816406 44.953125 45.652344 C 44.703125 45.484375 44.472656 45.292969 44.257812 45.082031 C 44.046875 44.867188 43.855469 44.636719 43.691406 44.386719 C 43.523438 44.132812 43.382812 43.871094 43.269531 43.589844 C 43.152344 43.3125 43.066406 43.027344 43.007812 42.730469 C 42.949219 42.433594 42.917969 42.136719 42.917969 41.835938 C 42.917969 41.535156 42.949219 41.234375 43.007812 40.941406 C 43.066406 40.644531 43.152344 40.359375 43.269531 40.078125 C 43.382812 39.800781 43.523438 39.539062 43.691406 39.285156 C 43.855469 39.035156 44.046875 38.804688 44.257812 38.589844 C 44.472656 38.378906 44.703125 38.1875 44.953125 38.019531 C 45.203125 37.851562 45.464844 37.710938 45.742188 37.597656 C 46.019531 37.480469 46.308594 37.394531 46.601562 37.335938 C 46.894531 37.277344 47.195312 37.246094 47.492188 37.246094 C 47.792969 37.246094 48.09375 37.277344 48.386719 37.335938 C 48.679688 37.394531 48.96875 37.480469 49.246094 37.597656 C 49.523438 37.710938 49.785156 37.851562 50.035156 38.019531 C 50.285156 38.1875 50.515625 38.378906 50.730469 38.589844 C 50.941406 38.804688 51.132812 39.035156 51.296875 39.285156 C 51.464844 39.539062 51.605469 39.800781 51.71875 40.078125 C 51.835938 40.359375 51.921875 40.644531 51.980469 40.941406 C 52.039062 41.234375 52.070312 41.535156 52.070312 41.835938 Z M 52.070312 41.835938 " fill-opacity="1" fill-rule="nonzero"/><path fill="#1a6fb0" d="M 32.246094 21.953125 L 42.917969 21.953125 L 42.917969 23.484375 L 32.246094 23.484375 Z M 32.246094 21.953125 " fill-opacity="1" fill-rule="nonzero"/><path fill="#1a6fb0" d="M 19.285156 26.542969 L 55.882812 26.542969 L 55.882812 28.070312 L 19.285156 28.070312 Z M 19.285156 26.542969 " fill-opacity="1" fill-rule="nonzero"/><path fill="#1a6fb0" d="M 19.285156 31.128906 L 37.582031 31.128906 L 37.582031 32.660156 L 19.285156 32.660156 Z M 19.285156 31.128906 " fill-opacity="1" fill-rule="nonzero"/><path fill="#1a6fb0" d="M 19.285156 35.71875 L 37.582031 35.71875 L 37.582031 37.246094 L 19.285156 37.246094 Z M 19.285156 35.71875 " fill-opacity="1" fill-rule="nonzero"/><path fill="#1a6fb0" d="M 19.285156 40.304688 L 31.484375 40.304688 L 31.484375 41.835938 L 19.285156 41.835938 Z M 19.285156 40.304688 " fill-opacity="1" fill-rule="nonzero"/><path fill="#f24e58" d="M 46.730469 44.128906 C 46.519531 44.128906 46.339844 44.054688 46.191406 43.90625 L 44.667969 42.375 L 45.746094 41.296875 L 46.730469 42.285156 L 49.242188 39.765625 L 50.320312 40.847656 L 47.269531 43.90625 C 47.121094 44.054688 46.941406 44.128906 46.730469 44.128906 Z M 46.730469 44.128906 " fill-opacity="1" fill-rule="nonzero"/></svg>