<svg xmlns="http://www.w3.org/2000/svg" xmlns:xlink="http://www.w3.org/1999/xlink" width="100" zoomAndPan="magnify" viewBox="0 0 75 74.999997" height="100" preserveAspectRatio="xMidYMid meet" version="1.0"><defs><clipPath id="6709287505"><path d="M 16.84375 16.84375 L 58.09375 16.84375 L 58.09375 58.09375 L 16.84375 58.09375 Z M 16.84375 16.84375 " clip-rule="nonzero"/></clipPath><clipPath id="cb54f6c7f3"><path d="M 28 22 L 58.09375 22 L 58.09375 58 L 28 58 Z M 28 22 " clip-rule="nonzero"/></clipPath></defs><g clip-path="url(#6709287505)"><path fill="#40bebb" d="M 58.101562 37.476562 C 58.101562 48.867188 48.867188 58.101562 37.476562 58.101562 C 26.085938 58.101562 16.851562 48.867188 16.851562 37.476562 C 16.851562 26.085938 26.085938 16.851562 37.476562 16.851562 C 48.867188 16.851562 58.101562 26.085938 58.101562 37.476562 " fill-opacity="1" fill-rule="nonzero"/></g><g clip-path="url(#cb54f6c7f3)"><path fill="#308b8a" d="M 45.632812 30.210938 L 37.300781 22.601562 L 28.664062 32.054688 L 39.300781 41.769531 L 31.914062 49.855469 L 40.671875 57.855469 C 50.546875 56.320312 58.101562 47.78125 58.101562 37.476562 C 58.101562 36.308594 58.003906 35.160156 57.816406 34.046875 L 49.265625 26.234375 L 45.632812 30.210938 " fill-opacity="1" fill-rule="nonzero"/></g><path fill="#153b3e" d="M 37.644531 23.226562 C 35.671875 26.285156 29.574219 27.082031 25.59375 26.871094 C 25.367188 29.8125 23.925781 48.222656 37.644531 53.589844 C 51.363281 48.222656 49.921875 29.8125 49.695312 26.871094 C 45.710938 27.082031 39.617188 26.285156 37.644531 23.226562 " fill-opacity="1" fill-rule="nonzero"/><path fill="#ffffff" d="M 37.234375 22.601562 C 35.261719 25.65625 29.167969 26.457031 25.183594 26.246094 C 24.957031 29.183594 23.515625 47.59375 37.234375 52.960938 C 50.953125 47.59375 49.511719 29.183594 49.285156 26.246094 C 45.304688 26.457031 39.207031 25.65625 37.234375 22.601562 " fill-opacity="1" fill-rule="nonzero"/><path fill="#be8209" d="M 37.234375 25.488281 C 35.636719 27.964844 30.703125 28.613281 27.476562 28.441406 C 27.292969 30.820312 26.128906 45.726562 37.234375 50.074219 C 48.34375 45.726562 47.175781 30.820312 46.992188 28.441406 C 43.769531 28.613281 38.832031 27.964844 37.234375 25.488281 " fill-opacity="1" fill-rule="nonzero"/><path fill="#f9ab0c" d="M 37.234375 25.8125 C 35.679688 28.222656 30.875 28.851562 27.734375 28.683594 C 27.554688 31.003906 26.417969 45.519531 37.234375 49.75 C 48.050781 45.519531 46.914062 31.003906 46.738281 28.683594 C 43.597656 28.851562 38.789062 28.222656 37.234375 25.8125 " fill-opacity="1" fill-rule="nonzero"/><path fill="#e2e9e5" d="M 49.285156 26.246094 C 45.308594 26.457031 39.226562 25.660156 37.246094 22.613281 L 37.246094 52.957031 C 50.953125 47.585938 49.511719 29.183594 49.285156 26.246094 " fill-opacity="1" fill-rule="nonzero"/><path fill="#97530a" d="M 46.992188 28.441406 C 43.773438 28.609375 38.851562 27.96875 37.246094 25.5 L 37.246094 50.070312 C 48.34375 45.71875 47.175781 30.820312 46.992188 28.441406 " fill-opacity="1" fill-rule="nonzero"/><path fill="#d47f0d" d="M 46.738281 28.683594 C 43.601562 28.851562 38.808594 28.222656 37.246094 25.824219 L 37.246094 49.746094 C 48.050781 45.511719 46.914062 31.003906 46.738281 28.683594 " fill-opacity="1" fill-rule="nonzero"/><path fill="#40bebb" d="M 42.457031 43.414062 C 42.457031 43.851562 42.101562 44.210938 41.660156 44.210938 L 32.828125 44.210938 C 32.386719 44.210938 32.03125 43.851562 32.03125 43.414062 L 32.03125 37.269531 C 32.03125 36.832031 32.386719 36.472656 32.828125 36.472656 L 41.660156 36.472656 C 42.101562 36.472656 42.457031 36.832031 42.457031 37.269531 L 42.457031 43.414062 " fill-opacity="1" fill-rule="nonzero"/><path fill="#ffffff" d="M 34.503906 36.472656 L 34.503906 34.921875 C 34.503906 33.4375 35.714844 32.226562 37.203125 32.226562 L 37.285156 32.226562 C 38.773438 32.226562 39.984375 33.4375 39.984375 34.921875 L 39.984375 36.472656 L 41.464844 36.472656 L 41.464844 34.921875 C 41.464844 32.617188 39.589844 30.742188 37.285156 30.742188 L 37.203125 30.742188 C 34.898438 30.742188 33.023438 32.617188 33.023438 34.921875 L 33.023438 36.472656 L 34.503906 36.472656 " fill-opacity="1" fill-rule="nonzero"/><path fill="#23150a" d="M 38.511719 39.542969 C 38.511719 38.84375 37.945312 38.277344 37.246094 38.277344 C 36.542969 38.277344 35.976562 38.84375 35.976562 39.542969 C 35.976562 39.976562 36.191406 40.355469 36.523438 40.585938 L 36.523438 41.683594 C 36.523438 42.082031 36.84375 42.40625 37.246094 42.40625 C 37.644531 42.40625 37.964844 42.082031 37.964844 41.683594 L 37.964844 40.585938 C 38.292969 40.355469 38.511719 39.976562 38.511719 39.542969 " fill-opacity="1" fill-rule="nonzero"/><path fill="#160c04" d="M 37.789062 40.855469 L 37.789062 41.898438 C 37.789062 42.027344 37.753906 42.148438 37.691406 42.25 C 37.859375 42.117188 37.964844 41.914062 37.964844 41.683594 L 37.964844 40.703125 C 37.910156 40.757812 37.851562 40.808594 37.789062 40.855469 " fill-opacity="1" fill-rule="nonzero"/><path fill="#160c04" d="M 37.246094 38.277344 C 36.582031 38.277344 36.042969 38.785156 35.984375 39.429688 C 36.15625 38.980469 36.59375 38.664062 37.101562 38.664062 C 37.765625 38.664062 38.304688 39.203125 38.304688 39.867188 C 38.304688 40.058594 38.261719 40.234375 38.183594 40.394531 C 38.386719 40.167969 38.511719 39.871094 38.511719 39.542969 C 38.511719 38.84375 37.945312 38.277344 37.246094 38.277344 " fill-opacity="1" fill-rule="nonzero"/><path fill="#fabc3b" d="M 31.285156 43.53125 C 27.9375 38.191406 28.5 30.972656 28.617188 29.464844 C 28.898438 29.480469 29.191406 29.488281 29.496094 29.488281 C 32.273438 29.488281 35.914062 28.835938 37.179688 26.878906 C 37.199219 26.910156 37.222656 26.941406 37.246094 26.972656 L 37.246094 30.742188 L 37.203125 30.742188 C 34.898438 30.742188 33.023438 32.617188 33.023438 34.921875 L 33.023438 36.472656 L 32.828125 36.472656 C 32.386719 36.472656 32.03125 36.832031 32.03125 37.269531 L 32.03125 42.796875 L 31.285156 43.53125 M 37.246094 36.472656 L 34.503906 36.472656 L 34.503906 34.921875 C 34.503906 33.4375 35.714844 32.226562 37.203125 32.226562 L 37.246094 32.226562 L 37.246094 36.472656 " fill-opacity="1" fill-rule="nonzero"/><path fill="#de9734" d="M 38.441406 36.472656 L 37.246094 36.472656 L 37.246094 32.226562 L 37.285156 32.226562 C 38.773438 32.226562 39.984375 33.4375 39.984375 34.921875 L 39.984375 34.953125 L 38.441406 36.472656 M 41.277344 33.679688 C 40.746094 31.980469 39.15625 30.742188 37.285156 30.742188 L 37.246094 30.742188 L 37.246094 26.972656 C 38.5625 28.855469 42.128906 29.488281 44.859375 29.488281 C 45.09375 29.488281 45.320312 29.484375 45.539062 29.476562 L 41.277344 33.679688 " fill-opacity="1" fill-rule="nonzero"/><path fill="#6cccc7" d="M 32.03125 42.796875 L 32.03125 37.269531 C 32.03125 36.832031 32.386719 36.472656 32.828125 36.472656 L 38.441406 36.472656 L 32.03125 42.796875 " fill-opacity="1" fill-rule="nonzero"/><path fill="#ffffff" d="M 34.503906 36.472656 L 33.023438 36.472656 L 33.023438 34.921875 C 33.023438 32.617188 34.898438 30.742188 37.203125 30.742188 L 37.285156 30.742188 C 39.15625 30.742188 40.746094 31.980469 41.277344 33.679688 L 39.984375 34.953125 L 39.984375 34.921875 C 39.984375 33.4375 38.773438 32.226562 37.285156 32.226562 L 37.203125 32.226562 C 35.714844 32.226562 34.503906 33.4375 34.503906 34.921875 L 34.503906 36.472656 " fill-opacity="1" fill-rule="nonzero"/></svg>