<svg xmlns="http://www.w3.org/2000/svg" xmlns:xlink="http://www.w3.org/1999/xlink" width="100" zoomAndPan="magnify" viewBox="0 0 75 74.999997" height="100" preserveAspectRatio="xMidYMid meet" version="1.0"><defs><clipPath id="556a07869a"><path d="M 21 17.929688 L 54 17.929688 L 54 33 L 21 33 Z M 21 17.929688 " clip-rule="nonzero"/></clipPath><clipPath id="c48f14053a"><path d="M 22.386719 45.75 L 38.207031 45.75 L 38.207031 56.929688 L 22.386719 56.929688 Z M 22.386719 45.75 " clip-rule="nonzero"/></clipPath><clipPath id="5a74da7375"><path d="M 16.539062 31 L 24 31 L 24 46 L 16.539062 46 Z M 16.539062 31 " clip-rule="nonzero"/></clipPath><clipPath id="927892d94b"><path d="M 51 31 L 58.539062 31 L 58.539062 46 L 51 46 Z M 51 31 " clip-rule="nonzero"/></clipPath></defs><g clip-path="url(#556a07869a)"><path fill="#0abfbc" d="M 51.976562 30.835938 L 52.164062 30.835938 C 52.917969 30.835938 53.546875 31.390625 53.65625 32.109375 C 53.769531 32.089844 53.886719 32.070312 54 32.058594 C 53.625 30.785156 53.128906 29.558594 52.523438 28.402344 C 52.121094 27.632812 51.671875 26.894531 51.175781 26.1875 C 51.433594 25.617188 51.347656 24.960938 50.945312 24.476562 C 50.804688 24.308594 50.664062 24.140625 50.519531 23.976562 C 47.066406 20.078125 42.457031 17.929688 37.539062 17.929688 C 32.625 17.929688 28.015625 20.078125 24.5625 23.976562 C 24.417969 24.140625 24.273438 24.308594 24.136719 24.472656 C 23.730469 24.960938 23.644531 25.613281 23.902344 26.1875 C 23.410156 26.894531 22.957031 27.632812 22.554688 28.402344 C 21.949219 29.558594 21.457031 30.785156 21.078125 32.058594 C 21.195312 32.070312 21.308594 32.089844 21.421875 32.109375 C 21.535156 31.390625 22.160156 30.835938 22.917969 30.835938 L 23.105469 30.835938 C 23.636719 29.503906 24.300781 28.261719 25.082031 27.132812 C 25.191406 27.15625 25.304688 27.167969 25.417969 27.167969 C 25.914062 27.167969 26.382812 26.949219 26.699219 26.5625 C 28.476562 24.417969 30.714844 22.832031 33.179688 21.96875 C 34.585938 21.476562 36.054688 21.226562 37.539062 21.226562 C 41.609375 21.226562 45.5625 23.171875 48.378906 26.570312 C 48.695312 26.949219 49.160156 27.167969 49.65625 27.167969 L 49.664062 27.167969 C 49.777344 27.167969 49.890625 27.15625 50 27.132812 C 50.773438 28.257812 51.441406 29.496094 51.976562 30.835938 " fill-opacity="1" fill-rule="nonzero"/></g><g clip-path="url(#c48f14053a)"><path fill="#0abfbc" d="M 37.996094 54.570312 C 37.714844 54.070312 37.179688 53.757812 36.601562 53.757812 C 36.089844 53.757812 35.605469 54.007812 35.308594 54.421875 L 35.113281 54.695312 L 34.78125 54.632812 C 31.890625 54.085938 29.144531 52.636719 26.84375 50.4375 C 25.464844 49.117188 24.285156 47.582031 23.34375 45.863281 L 22.917969 45.863281 C 22.730469 45.863281 22.554688 45.824219 22.390625 45.757812 C 22.746094 46.441406 23.132812 47.105469 23.558594 47.738281 C 24.355469 48.933594 25.277344 50.03125 26.296875 51.007812 C 27.511719 52.167969 28.847656 53.132812 30.261719 53.875 C 31.664062 54.613281 33.144531 55.128906 34.664062 55.410156 L 34.984375 55.46875 L 35.070312 55.78125 C 35.265625 56.457031 35.894531 56.929688 36.601562 56.929688 C 37.25 56.929688 37.828125 56.542969 38.078125 55.949219 C 38.15625 55.753906 38.195312 55.550781 38.195312 55.34375 C 38.195312 55.074219 38.128906 54.804688 37.996094 54.574219 L 37.996094 54.570312 " fill-opacity="1" fill-rule="nonzero"/></g><g clip-path="url(#5a74da7375)"><path fill="#0abfbc" d="M 23.019531 45.335938 C 23.128906 45.335938 23.222656 45.246094 23.222656 45.136719 L 23.222656 31.554688 C 23.222656 31.441406 23.128906 31.351562 23.019531 31.351562 L 22.90625 31.351562 C 22.210938 31.351562 21.640625 31.917969 21.640625 32.609375 C 21.300781 32.445312 20.921875 32.351562 20.519531 32.339844 C 20.480469 32.335938 20.445312 32.335938 20.40625 32.335938 C 20.296875 32.335938 20.191406 32.339844 20.085938 32.351562 C 18.507812 32.484375 17.195312 33.617188 16.808594 35.117188 C 16.742188 35.375 16.703125 35.640625 16.695312 35.914062 L 16.554688 40.574219 C 16.550781 40.621094 16.550781 40.667969 16.550781 40.71875 C 16.566406 42.683594 18.15625 44.316406 20.148438 44.378906 C 20.179688 44.378906 20.207031 44.378906 20.234375 44.378906 C 20.429688 44.378906 20.617188 44.359375 20.800781 44.320312 C 21.101562 44.261719 21.382812 44.152344 21.640625 44.003906 C 21.640625 44.738281 22.246094 45.335938 22.984375 45.335938 L 23.019531 45.335938 " fill-opacity="1" fill-rule="nonzero"/></g><g clip-path="url(#927892d94b)"><path fill="#0abfbc" d="M 58.527344 40.574219 L 58.382812 35.914062 C 58.375 35.640625 58.335938 35.375 58.273438 35.117188 C 57.886719 33.617188 56.570312 32.484375 54.996094 32.351562 C 54.890625 32.339844 54.78125 32.335938 54.675781 32.335938 C 54.636719 32.335938 54.597656 32.335938 54.5625 32.339844 C 54.160156 32.351562 53.78125 32.445312 53.441406 32.609375 C 53.441406 31.917969 52.871094 31.351562 52.175781 31.351562 L 52.0625 31.351562 C 51.949219 31.351562 51.859375 31.441406 51.859375 31.554688 L 51.859375 34.703125 C 51.832031 34.875 51.820312 35.050781 51.824219 35.230469 L 51.859375 36.324219 L 51.859375 45.136719 C 51.859375 45.246094 51.949219 45.335938 52.0625 45.335938 L 52.097656 45.335938 C 52.835938 45.335938 53.441406 44.738281 53.441406 44.003906 C 53.5 44.035156 53.558594 44.066406 53.617188 44.097656 C 53.992188 44.277344 54.40625 44.378906 54.84375 44.378906 C 54.875 44.378906 54.902344 44.378906 54.929688 44.378906 C 56.925781 44.316406 58.515625 42.683594 58.527344 40.71875 C 58.53125 40.667969 58.527344 40.621094 58.527344 40.574219 " fill-opacity="1" fill-rule="nonzero"/></g><path fill="#fc354c" d="M 43.652344 37.011719 C 43.601562 37.941406 42.839844 38.699219 41.902344 38.746094 C 40.808594 38.804688 39.910156 37.910156 39.964844 36.820312 C 40.011719 35.886719 40.773438 35.128906 41.710938 35.082031 C 42.804688 35.027344 43.707031 35.921875 43.652344 37.011719 Z M 39.382812 37.011719 C 39.335938 37.941406 38.574219 38.699219 37.636719 38.746094 C 36.542969 38.804688 35.640625 37.910156 35.699219 36.820312 C 35.746094 35.886719 36.507812 35.128906 37.445312 35.082031 C 38.539062 35.027344 39.4375 35.921875 39.382812 37.011719 Z M 35.117188 37.011719 C 35.070312 37.941406 34.304688 38.699219 33.367188 38.746094 C 32.273438 38.804688 31.375 37.910156 31.429688 36.820312 C 31.476562 35.886719 32.238281 35.128906 33.175781 35.082031 C 34.273438 35.027344 35.171875 35.921875 35.117188 37.011719 Z M 49.453125 36.785156 C 49.453125 30.757812 44.117188 25.871094 37.539062 25.871094 C 30.960938 25.871094 25.628906 30.757812 25.628906 36.785156 C 25.628906 42.808594 30.960938 47.695312 37.539062 47.695312 C 39.253906 47.695312 40.882812 47.363281 42.355469 46.765625 C 42.96875 46.515625 43.648438 46.472656 44.285156 46.644531 L 48.265625 47.703125 C 48.6875 47.816406 49.070312 47.433594 48.957031 47.015625 L 48.050781 43.640625 C 47.851562 42.90625 47.945312 42.128906 48.296875 41.453125 C 49.035156 40.039062 49.453125 38.457031 49.453125 36.785156 " fill-opacity="1" fill-rule="nonzero"/></svg>