<svg xmlns="http://www.w3.org/2000/svg" xmlns:xlink="http://www.w3.org/1999/xlink" width="100" zoomAndPan="magnify" viewBox="0 0 75 74.999997" height="100" preserveAspectRatio="xMidYMid meet" version="1.0"><defs><clipPath id="e7b8d41fae"><path d="M 12.953125 12.953125 L 61.703125 12.953125 L 61.703125 61.703125 L 12.953125 61.703125 Z M 12.953125 12.953125 " clip-rule="nonzero"/></clipPath><clipPath id="1b306fc286"><path d="M 12.953125 28 L 29 28 L 29 60 L 12.953125 60 Z M 12.953125 28 " clip-rule="nonzero"/></clipPath><clipPath id="a17573609b"><path d="M 16 49 L 34 49 L 34 61.703125 L 16 61.703125 Z M 16 49 " clip-rule="nonzero"/></clipPath><clipPath id="cad7fe3bb3"><path d="M 39 49 L 58 49 L 58 61.703125 L 39 61.703125 Z M 39 49 " clip-rule="nonzero"/></clipPath><clipPath id="aa65ef23fa"><path d="M 25 49 L 47 49 L 47 61.703125 L 25 61.703125 Z M 25 49 " clip-rule="nonzero"/></clipPath></defs><g clip-path="url(#e7b8d41fae)"><path fill="#72cf7b" d="M 61.703125 37.328125 C 61.703125 38.128906 61.664062 38.921875 61.585938 39.71875 C 61.507812 40.511719 61.390625 41.300781 61.234375 42.085938 C 61.078125 42.867188 60.886719 43.640625 60.65625 44.40625 C 60.421875 45.167969 60.152344 45.917969 59.847656 46.65625 C 59.542969 47.394531 59.203125 48.113281 58.824219 48.820312 C 58.449219 49.523438 58.039062 50.207031 57.597656 50.871094 C 57.152344 51.535156 56.675781 52.175781 56.171875 52.792969 C 55.664062 53.410156 55.128906 54 54.566406 54.566406 C 54 55.128906 53.410156 55.664062 52.792969 56.171875 C 52.175781 56.675781 51.535156 57.152344 50.871094 57.597656 C 50.207031 58.039062 49.523438 58.449219 48.820312 58.824219 C 48.113281 59.203125 47.394531 59.542969 46.65625 59.847656 C 45.917969 60.152344 45.167969 60.421875 44.40625 60.65625 C 43.640625 60.886719 42.867188 61.078125 42.085938 61.234375 C 41.300781 61.390625 40.511719 61.507812 39.71875 61.585938 C 38.921875 61.664062 38.128906 61.703125 37.328125 61.703125 C 36.53125 61.703125 35.734375 61.664062 34.941406 61.585938 C 34.144531 61.507812 33.355469 61.390625 32.574219 61.234375 C 31.789062 61.078125 31.015625 60.886719 30.253906 60.65625 C 29.488281 60.421875 28.738281 60.152344 28 59.847656 C 27.261719 59.542969 26.542969 59.203125 25.839844 58.824219 C 25.132812 58.449219 24.449219 58.039062 23.785156 57.597656 C 23.125 57.152344 22.484375 56.675781 21.867188 56.171875 C 21.25 55.664062 20.65625 55.128906 20.09375 54.566406 C 19.527344 54 18.992188 53.410156 18.488281 52.792969 C 17.980469 52.175781 17.503906 51.535156 17.0625 50.871094 C 16.617188 50.207031 16.207031 49.523438 15.832031 48.820312 C 15.457031 48.113281 15.113281 47.394531 14.808594 46.65625 C 14.503906 45.917969 14.234375 45.167969 14.003906 44.40625 C 13.773438 43.640625 13.578125 42.867188 13.421875 42.085938 C 13.265625 41.300781 13.148438 40.511719 13.070312 39.71875 C 12.992188 38.921875 12.953125 38.128906 12.953125 37.328125 C 12.953125 36.53125 12.992188 35.734375 13.070312 34.941406 C 13.148438 34.144531 13.265625 33.355469 13.421875 32.574219 C 13.578125 31.789062 13.773438 31.015625 14.003906 30.253906 C 14.234375 29.488281 14.503906 28.738281 14.808594 28 C 15.113281 27.261719 15.457031 26.542969 15.832031 25.839844 C 16.207031 25.132812 16.617188 24.449219 17.0625 23.785156 C 17.503906 23.125 17.980469 22.484375 18.488281 21.867188 C 18.992188 21.25 19.527344 20.65625 20.09375 20.09375 C 20.65625 19.527344 21.25 18.992188 21.867188 18.488281 C 22.484375 17.980469 23.125 17.503906 23.785156 17.0625 C 24.449219 16.617188 25.132812 16.207031 25.839844 15.832031 C 26.542969 15.457031 27.261719 15.113281 28 14.808594 C 28.738281 14.503906 29.488281 14.234375 30.253906 14.003906 C 31.015625 13.773438 31.789062 13.578125 32.574219 13.421875 C 33.355469 13.265625 34.144531 13.148438 34.941406 13.070312 C 35.734375 12.992188 36.53125 12.953125 37.328125 12.953125 C 38.128906 12.953125 38.921875 12.992188 39.71875 13.070312 C 40.511719 13.148438 41.300781 13.265625 42.085938 13.421875 C 42.867188 13.578125 43.640625 13.773438 44.40625 14.003906 C 45.167969 14.234375 45.917969 14.503906 46.65625 14.808594 C 47.394531 15.113281 48.113281 15.457031 48.820312 15.832031 C 49.523438 16.207031 50.207031 16.617188 50.871094 17.0625 C 51.535156 17.503906 52.175781 17.980469 52.792969 18.488281 C 53.410156 18.992188 54 19.527344 54.566406 20.09375 C 55.128906 20.65625 55.664062 21.25 56.171875 21.867188 C 56.675781 22.484375 57.152344 23.125 57.597656 23.785156 C 58.039062 24.449219 58.449219 25.132812 58.824219 25.839844 C 59.203125 26.542969 59.542969 27.261719 59.847656 28 C 60.152344 28.738281 60.421875 29.488281 60.65625 30.253906 C 60.886719 31.015625 61.078125 31.789062 61.234375 32.574219 C 61.390625 33.355469 61.507812 34.144531 61.585938 34.941406 C 61.664062 35.734375 61.703125 36.53125 61.703125 37.328125 Z M 61.703125 37.328125 " fill-opacity="1" fill-rule="nonzero"/></g><path fill="#f5f5f5" d="M 27.832031 16.628906 L 58.695312 16.628906 L 58.695312 36.097656 L 27.832031 36.097656 Z M 27.832031 16.628906 " fill-opacity="1" fill-rule="evenodd"/><path fill="#53b4ed" d="M 33.480469 25.585938 L 35.414062 25.585938 L 35.414062 32.054688 L 33.480469 32.054688 Z M 33.480469 25.585938 " fill-opacity="1" fill-rule="evenodd"/><path fill="#72cf7b" d="M 36.265625 27.117188 L 38.199219 27.117188 L 38.199219 32.054688 L 36.265625 32.054688 Z M 36.265625 27.117188 " fill-opacity="1" fill-rule="evenodd"/><path fill="#ffc42e" d="M 39.050781 23.691406 L 40.984375 23.691406 L 40.984375 32.054688 L 39.050781 32.054688 Z M 39.050781 23.691406 " fill-opacity="1" fill-rule="evenodd"/><path fill="#ff576b" d="M 41.835938 25.425781 L 43.769531 25.425781 L 43.769531 32.054688 L 41.835938 32.054688 Z M 41.835938 25.425781 " fill-opacity="1" fill-rule="evenodd"/><path fill="#c6cbd6" d="M 44.832031 19.417969 C 44.730469 19.417969 44.648438 19.335938 44.648438 19.234375 C 44.648438 19.132812 44.730469 19.050781 44.832031 19.050781 L 46.796875 19.050781 C 46.898438 19.050781 46.980469 19.132812 46.980469 19.234375 L 46.785156 21.214844 C 46.785156 21.316406 46.703125 21.398438 46.601562 21.398438 C 46.5 21.398438 46.417969 21.316406 46.417969 21.214844 L 46.613281 19.625 L 42.921875 22.652344 C 42.859375 22.703125 42.769531 22.710938 42.699219 22.664062 L 40.058594 20.8125 L 37.378906 24.328125 C 37.328125 24.402344 37.230469 24.425781 37.144531 24.382812 L 34.472656 22.964844 L 30.921875 26.113281 C 30.84375 26.179688 30.730469 26.171875 30.660156 26.097656 C 30.59375 26.019531 30.601562 25.902344 30.679688 25.835938 L 34.324219 22.605469 C 34.382812 22.554688 34.464844 22.546875 34.53125 22.582031 L 37.179688 23.984375 L 39.871094 20.449219 C 39.933594 20.367188 40.050781 20.351562 40.128906 20.414062 L 40.132812 20.417969 L 42.796875 22.28125 L 46.28125 19.417969 Z M 44.832031 19.417969 " fill-opacity="1" fill-rule="nonzero"/><path fill="#b7bcc6" d="M 35.070312 22.742188 C 35.070312 22.914062 35.007812 23.0625 34.886719 23.183594 C 34.765625 23.304688 34.617188 23.367188 34.445312 23.367188 C 34.273438 23.367188 34.128906 23.304688 34.007812 23.183594 C 33.882812 23.0625 33.824219 22.914062 33.824219 22.742188 C 33.824219 22.570312 33.882812 22.425781 34.007812 22.304688 C 34.128906 22.183594 34.273438 22.121094 34.445312 22.121094 C 34.617188 22.121094 34.765625 22.183594 34.886719 22.304688 C 35.007812 22.425781 35.070312 22.570312 35.070312 22.742188 Z M 35.070312 22.742188 " fill-opacity="1" fill-rule="nonzero"/><path fill="#b7bcc6" d="M 37.855469 24.222656 C 37.855469 24.394531 37.792969 24.539062 37.671875 24.660156 C 37.550781 24.78125 37.40625 24.84375 37.234375 24.84375 C 37.0625 24.84375 36.914062 24.78125 36.792969 24.660156 C 36.671875 24.539062 36.609375 24.394531 36.609375 24.222656 C 36.609375 24.050781 36.671875 23.902344 36.792969 23.78125 C 36.914062 23.660156 37.0625 23.597656 37.234375 23.597656 C 37.40625 23.597656 37.550781 23.660156 37.671875 23.78125 C 37.792969 23.902344 37.855469 24.050781 37.855469 24.222656 Z M 37.855469 24.222656 " fill-opacity="1" fill-rule="nonzero"/><path fill="#b7bcc6" d="M 40.640625 20.5625 C 40.640625 20.734375 40.582031 20.878906 40.460938 21 C 40.335938 21.121094 40.191406 21.183594 40.019531 21.183594 C 39.847656 21.183594 39.699219 21.121094 39.578125 21 C 39.457031 20.878906 39.398438 20.734375 39.398438 20.5625 C 39.398438 20.390625 39.457031 20.242188 39.578125 20.121094 C 39.699219 20 39.847656 19.9375 40.019531 19.9375 C 40.191406 19.9375 40.335938 20 40.460938 20.121094 C 40.582031 20.242188 40.640625 20.390625 40.640625 20.5625 Z M 40.640625 20.5625 " fill-opacity="1" fill-rule="nonzero"/><path fill="#b7bcc6" d="M 43.425781 22.511719 C 43.425781 22.683594 43.367188 22.832031 43.246094 22.953125 C 43.121094 23.074219 42.976562 23.132812 42.804688 23.132812 C 42.632812 23.132812 42.484375 23.074219 42.363281 22.953125 C 42.242188 22.832031 42.183594 22.683594 42.183594 22.511719 C 42.183594 22.339844 42.242188 22.191406 42.363281 22.070312 C 42.484375 21.949219 42.632812 21.890625 42.804688 21.890625 C 42.976562 21.890625 43.121094 21.949219 43.246094 22.070312 C 43.367188 22.191406 43.425781 22.339844 43.425781 22.511719 Z M 43.425781 22.511719 " fill-opacity="1" fill-rule="nonzero"/><path fill="#c6cbd6" d="M 32.292969 31.785156 L 44.957031 31.785156 L 44.957031 32.054688 L 32.292969 32.054688 Z M 32.292969 31.785156 " fill-opacity="1" fill-rule="evenodd"/><path fill="#ff576b" d="M 52.105469 21.886719 L 54.351562 24.066406 C 54.382812 24.03125 54.417969 23.996094 54.449219 23.957031 C 53.875 24.605469 53.039062 25.015625 52.105469 25.015625 C 50.375 25.015625 48.972656 23.613281 48.972656 21.886719 C 48.972656 20.15625 50.375 18.757812 52.105469 18.757812 Z M 54.757812 23.546875 C 54.730469 23.585938 54.703125 23.625 54.679688 23.667969 C 54.703125 23.625 54.730469 23.585938 54.757812 23.546875 Z M 54.675781 23.667969 C 54.605469 23.769531 54.53125 23.867188 54.449219 23.957031 C 54.53125 23.867188 54.605469 23.769531 54.675781 23.667969 Z M 54.675781 23.667969 " fill-opacity="1" fill-rule="evenodd"/><path fill="#72cf7b" d="M 52.625 18.800781 C 53.324219 18.917969 53.945312 19.265625 54.40625 19.765625 L 52.566406 21.460938 Z M 52.625 18.800781 " fill-opacity="1" fill-rule="evenodd"/><path fill="#ffc42e" d="M 54.53125 23.542969 L 52.710938 21.867188 L 54.574219 20.289062 C 55.421875 21.207031 55.402344 22.648438 54.53125 23.542969 Z M 54.53125 23.542969 " fill-opacity="1" fill-rule="evenodd"/><path fill="#c6cbd6" d="M 51.914062 27.246094 L 56.242188 27.246094 L 56.242188 27.539062 L 51.914062 27.539062 Z M 51.914062 27.246094 " fill-opacity="1" fill-rule="evenodd"/><path fill="#c6cbd6" d="M 51.914062 28.101562 L 54.035156 28.101562 L 54.035156 28.394531 L 51.914062 28.394531 Z M 51.914062 28.101562 " fill-opacity="1" fill-rule="evenodd"/><path fill="#c6cbd6" d="M 51.914062 28.953125 L 55.035156 28.953125 L 55.035156 29.246094 L 51.914062 29.246094 Z M 51.914062 28.953125 " fill-opacity="1" fill-rule="evenodd"/><path fill="#ff576b" d="M 50.882812 27.246094 L 51.28125 27.246094 L 51.28125 27.539062 L 50.882812 27.539062 Z M 50.882812 27.246094 " fill-opacity="1" fill-rule="evenodd"/><path fill="#72cf7b" d="M 50.882812 28.101562 L 51.28125 28.101562 L 51.28125 28.394531 L 50.882812 28.394531 Z M 50.882812 28.101562 " fill-opacity="1" fill-rule="evenodd"/><path fill="#fac94b" d="M 50.882812 28.953125 L 51.28125 28.953125 L 51.28125 29.246094 L 50.882812 29.246094 Z M 50.882812 28.953125 " fill-opacity="1" fill-rule="evenodd"/><path fill="#c6cbd6" d="M 48.332031 30.9375 L 57.277344 30.9375 L 57.277344 31.160156 L 48.332031 31.160156 Z M 48.332031 30.9375 " fill-opacity="1" fill-rule="evenodd"/><path fill="#c6cbd6" d="M 48.332031 31.628906 L 53.332031 31.628906 L 53.332031 31.851562 L 48.332031 31.851562 Z M 48.332031 31.628906 " fill-opacity="1" fill-rule="evenodd"/><path fill="#154e5e" d="M 27.832031 15.828125 L 58.695312 15.828125 L 58.695312 16.628906 L 27.832031 16.628906 Z M 27.832031 15.828125 " fill-opacity="1" fill-rule="evenodd"/><path fill="#ffc57a" d="M 42.71875 28.128906 C 43.355469 28.265625 44.234375 28.15625 44.441406 28.222656 C 44.796875 28.335938 44.5625 28.769531 44.285156 28.882812 C 43.929688 29.039062 42.925781 29.105469 42.925781 29.105469 C 42.902344 29.105469 42.886719 29.160156 42.9375 29.167969 C 43.085938 29.199219 44.980469 29.011719 44.980469 29.011719 C 44.980469 29.011719 46.464844 27.832031 46.730469 27.664062 C 46.988281 27.5 47.199219 27.816406 47.199219 27.816406 C 47.199219 27.816406 45.589844 29.945312 45.4375 30.132812 C 45.183594 30.445312 41.273438 30.839844 41.140625 30.855469 L 40.078125 32.027344 L 38.972656 30.433594 L 40.285156 29.355469 C 41.042969 28.503906 42.210938 28.015625 42.71875 28.128906 Z M 42.71875 28.128906 " fill-opacity="1" fill-rule="evenodd"/><path fill="#dea767" d="M 39.910156 31.769531 L 40.929688 30.597656 L 45.070312 30.136719 C 45.195312 30.117188 45.363281 30.03125 45.429688 29.949219 L 46.894531 28.078125 L 46.957031 28.136719 C 46.503906 28.734375 45.554688 29.992188 45.4375 30.132812 C 45.183594 30.445312 41.273438 30.839844 41.140625 30.855469 L 40.078125 32.027344 Z M 39.910156 31.769531 " fill-opacity="1" fill-rule="evenodd"/><path fill="#dea767" d="M 44.507812 28.710938 C 44.449219 28.785156 44.371094 28.851562 44.285156 28.882812 C 43.929688 29.039062 42.925781 29.105469 42.925781 29.105469 C 42.902344 29.105469 42.886719 29.160156 42.9375 29.167969 C 42.949219 29.171875 42.988281 29.171875 43.007812 29.171875 C 42.382812 29.207031 41.761719 29.324219 41.136719 29.527344 C 41.222656 29.441406 42.585938 28.960938 42.585938 28.960938 C 43.160156 28.9375 43.992188 28.976562 44.507812 28.710938 Z M 44.507812 28.710938 " fill-opacity="1" fill-rule="evenodd"/><path fill="#ffd296" d="M 44.050781 29.097656 C 44.527344 29.054688 44.980469 29.011719 44.980469 29.011719 C 44.980469 29.011719 46.085938 28.132812 46.558594 27.785156 C 46.273438 28.050781 45.078125 29.058594 45.078125 29.058594 Z M 44.050781 29.097656 " fill-opacity="1" fill-rule="evenodd"/><path fill="#ffd296" d="M 42.71875 28.128906 C 43.355469 28.265625 44.234375 28.15625 44.441406 28.222656 C 44.535156 28.253906 44.585938 28.304688 44.609375 28.367188 C 44.515625 28.242188 44.277344 28.230469 44.171875 28.242188 C 44.066406 28.25 42.878906 28.28125 42.878906 28.28125 C 41.664062 28.027344 40.207031 29.429688 40.207031 29.429688 C 40.960938 28.578125 42.210938 28.015625 42.71875 28.128906 Z M 42.71875 28.128906 " fill-opacity="1" fill-rule="evenodd"/><path fill="#fee5c2" d="M 47.03125 27.742188 L 46.800781 28.023438 C 46.820312 28 46.921875 28.023438 46.949219 28.117188 L 47.148438 27.835938 C 47.128906 27.78125 47.09375 27.746094 47.03125 27.742188 Z M 47.03125 27.742188 " fill-opacity="1" fill-rule="evenodd"/><path fill="#154e5e" d="M 32.175781 34.980469 L 39.214844 29.988281 L 41.136719 32.566406 L 31.964844 40.644531 C 31.667969 40.902344 31.257812 40.761719 30.945312 40.523438 L 26.929688 37.507812 L 26.929688 29.507812 L 31.175781 34.796875 C 31.417969 35.101562 31.859375 35.207031 32.175781 34.980469 Z M 32.175781 34.980469 " fill-opacity="1" fill-rule="evenodd"/><path fill="#ffffff" d="M 39.214844 29.988281 L 39.757812 29.605469 L 41.671875 32.117188 L 41.136719 32.566406 Z M 39.214844 29.988281 " fill-opacity="1" fill-rule="evenodd"/><path fill="#dea767" d="M 19.847656 23.65625 L 18.3125 24.308594 L 17.847656 28.148438 L 21.828125 28.148438 L 21.382812 24.308594 Z M 19.847656 23.65625 " fill-opacity="1" fill-rule="evenodd"/><g clip-path="url(#1b306fc286)"><path fill="#154e5e" d="M 15.914062 28.148438 L 23.78125 28.148438 C 26.171875 28.148438 28.125 30.105469 28.125 32.492188 L 28.125 59.902344 C 19.226562 56.273438 12.953125 47.535156 12.953125 37.328125 C 12.953125 34.148438 13.5625 31.113281 14.671875 28.328125 C 15.066406 28.210938 15.480469 28.148438 15.914062 28.148438 Z M 15.914062 28.148438 " fill-opacity="1" fill-rule="evenodd"/></g><path fill="#ffffff" d="M 17.160156 28.148438 L 22.535156 28.148438 L 22.535156 56.699219 C 20.453125 55.105469 18.636719 53.1875 17.160156 51.019531 Z M 17.160156 28.148438 " fill-opacity="1" fill-rule="evenodd"/><path fill="#e6e6e6" d="M 19.847656 28.148438 L 17.917969 30.441406 L 17.160156 28.148438 Z M 19.847656 28.148438 " fill-opacity="1" fill-rule="evenodd"/><path fill="#ffffff" d="M 17.785156 27.117188 L 19.699219 28.148438 L 17.910156 30.003906 L 17.160156 28.148438 Z M 17.785156 27.117188 " fill-opacity="1" fill-rule="evenodd"/><path fill="#e6e6e6" d="M 19.847656 28.148438 L 21.777344 30.441406 L 22.535156 28.148438 Z M 19.847656 28.148438 " fill-opacity="1" fill-rule="evenodd"/><path fill="#ffffff" d="M 21.941406 27.097656 L 20.015625 28.148438 L 21.785156 30.003906 L 22.53125 28.148438 Z M 21.941406 27.097656 " fill-opacity="1" fill-rule="evenodd"/><path fill="#ffc57a" d="M 19.371094 18.722656 L 20.339844 18.722656 C 21.605469 18.722656 22.640625 19.734375 22.640625 20.972656 L 22.640625 23.605469 C 22.640625 24.84375 21.605469 26.597656 20.339844 26.597656 L 19.371094 26.597656 C 18.109375 26.597656 17.074219 24.84375 17.074219 23.605469 L 17.074219 20.972656 C 17.074219 19.734375 18.105469 18.722656 19.371094 18.722656 Z M 19.371094 18.722656 " fill-opacity="1" fill-rule="evenodd"/><path fill="#154e5e" d="M 17.074219 21.476562 L 17.34375 20.28125 C 17.34375 20.28125 18.464844 20.367188 19.042969 18.730469 C 18.089844 17.460938 15.511719 19.183594 17.074219 21.476562 Z M 17.074219 21.476562 " fill-opacity="1" fill-rule="evenodd"/><path fill="#f7ba74" d="M 17.074219 23.605469 C 16.363281 23.535156 15.886719 22.015625 16.359375 21.480469 C 16.566406 21.246094 16.871094 21.257812 17.074219 21.476562 Z M 17.074219 23.605469 " fill-opacity="1" fill-rule="evenodd"/><path fill="#f7ba74" d="M 22.640625 23.605469 C 23.347656 23.535156 23.824219 22.015625 23.351562 21.480469 C 23.144531 21.246094 22.84375 21.257812 22.640625 21.476562 Z M 22.640625 23.605469 " fill-opacity="1" fill-rule="evenodd"/><path fill="#154e5e" d="M 24.015625 19.800781 C 23.253906 20.179688 23.136719 19.753906 22.398438 18.589844 C 21.347656 16.933594 19.101562 17.3125 18.648438 18.367188 C 17.667969 20.648438 23.117188 23.011719 24.015625 19.800781 Z M 24.015625 19.800781 " fill-opacity="1" fill-rule="evenodd"/><path fill="#ff576b" d="M 19.847656 37.972656 L 18.457031 36.167969 L 19.429688 28.652344 L 19.847656 28.148438 L 20.265625 28.652344 L 21.234375 36.167969 Z M 19.847656 37.972656 " fill-opacity="1" fill-rule="evenodd"/><path fill="#ffc57a" d="M 22.601562 43.492188 L 20.617188 44.335938 L 20.023438 49.292969 L 25.160156 49.292969 L 24.585938 44.335938 Z M 22.601562 43.492188 " fill-opacity="1" fill-rule="evenodd"/><g clip-path="url(#a17573609b)"><path fill="#ffc42e" d="M 17.519531 49.292969 L 27.683594 49.292969 C 30.769531 49.292969 33.296875 51.820312 33.296875 54.90625 L 33.296875 61.371094 C 25.972656 60.148438 19.75 55.664062 16.179688 49.457031 C 16.609375 49.351562 17.058594 49.292969 17.519531 49.292969 Z M 17.519531 49.292969 " fill-opacity="1" fill-rule="evenodd"/></g><path fill="#246e82" d="M 26.207031 40.394531 L 26.207031 43.429688 C 26.207031 45.027344 24.871094 46.882812 23.242188 46.882812 L 21.988281 46.882812 C 20.355469 46.882812 19.019531 45.027344 19.019531 43.429688 L 19.019531 40.675781 C 17.246094 38.070312 19.609375 36.039062 21.039062 36.699219 C 21.046875 36.6875 21.050781 36.671875 21.054688 36.660156 C 21.640625 35.300781 24.539062 34.808594 25.894531 36.949219 C 26.851562 38.453125 27 39 27.988281 38.511719 C 27.695312 39.5625 27.023438 40.148438 26.207031 40.394531 Z M 26.207031 40.394531 " fill-opacity="1" fill-rule="evenodd"/><path fill="#ffc57a" d="M 19.019531 43.425781 C 18.105469 43.335938 17.484375 41.375 18.097656 40.683594 C 18.367188 40.378906 18.757812 40.394531 19.019531 40.675781 Z M 19.019531 43.425781 " fill-opacity="1" fill-rule="evenodd"/><path fill="#ffc57a" d="M 26.207031 43.425781 C 27.125 43.335938 27.742188 41.375 27.132812 40.683594 C 26.863281 40.378906 26.472656 40.394531 26.207031 40.675781 Z M 26.207031 43.425781 " fill-opacity="1" fill-rule="evenodd"/><path fill="#ffffff" d="M 20.105469 48.195312 L 25.074219 48.195312 C 25.382812 48.195312 25.632812 48.445312 25.632812 48.753906 L 25.632812 49.292969 L 19.550781 49.292969 L 19.550781 48.753906 C 19.550781 48.445312 19.800781 48.195312 20.105469 48.195312 Z M 20.105469 48.195312 " fill-opacity="1" fill-rule="evenodd"/><path fill="#ffc57a" d="M 49.722656 43.492188 L 47.738281 44.335938 L 47.144531 49.292969 L 52.28125 49.292969 L 51.707031 44.335938 Z M 49.722656 43.492188 " fill-opacity="1" fill-rule="evenodd"/><g clip-path="url(#cad7fe3bb3)"><path fill="#ff576b" d="M 44.640625 49.292969 L 54.800781 49.292969 C 55.976562 49.292969 57.070312 49.660156 57.976562 50.285156 C 53.945312 56.691406 47.015625 61.09375 39.027344 61.644531 L 39.027344 54.90625 C 39.027344 51.820312 41.554688 49.292969 44.640625 49.292969 Z M 44.640625 49.292969 " fill-opacity="1" fill-rule="evenodd"/></g><path fill="#246e82" d="M 53.328125 40.394531 L 53.328125 43.429688 C 53.328125 45.027344 51.992188 46.882812 50.359375 46.882812 L 49.105469 46.882812 C 47.472656 46.882812 46.140625 45.027344 46.140625 43.429688 L 46.140625 40.675781 C 44.363281 38.070312 46.730469 36.039062 48.160156 36.699219 C 48.167969 36.6875 48.171875 36.671875 48.175781 36.660156 C 48.761719 35.300781 51.660156 34.808594 53.015625 36.949219 C 53.96875 38.453125 54.121094 39 55.109375 38.511719 C 54.8125 39.5625 54.144531 40.148438 53.328125 40.394531 Z M 53.328125 40.394531 " fill-opacity="1" fill-rule="evenodd"/><path fill="#ffc57a" d="M 46.140625 43.425781 C 45.222656 43.335938 44.605469 41.375 45.214844 40.683594 C 45.484375 40.378906 45.875 40.394531 46.140625 40.675781 Z M 46.140625 43.425781 " fill-opacity="1" fill-rule="evenodd"/><path fill="#ffc57a" d="M 53.328125 43.425781 C 54.246094 43.335938 54.863281 41.375 54.253906 40.683594 C 53.984375 40.378906 53.589844 40.394531 53.328125 40.675781 Z M 53.328125 43.425781 " fill-opacity="1" fill-rule="evenodd"/><path fill="#ffffff" d="M 47.226562 48.195312 L 52.195312 48.195312 C 52.503906 48.195312 52.753906 48.445312 52.753906 48.753906 L 52.753906 49.292969 L 46.667969 49.292969 L 46.667969 48.753906 C 46.667969 48.445312 46.921875 48.195312 47.226562 48.195312 Z M 47.226562 48.195312 " fill-opacity="1" fill-rule="evenodd"/><path fill="#ffc57a" d="M 36.164062 43.492188 L 34.179688 44.335938 L 33.582031 49.292969 L 38.722656 49.292969 L 38.148438 44.335938 Z M 36.164062 43.492188 " fill-opacity="1" fill-rule="evenodd"/><g clip-path="url(#aa65ef23fa)"><path fill="#e3e7f2" d="M 31.082031 49.292969 L 41.242188 49.292969 C 44.332031 49.292969 46.855469 51.820312 46.855469 54.90625 L 46.855469 59.769531 C 43.929688 61.011719 40.710938 61.703125 37.328125 61.703125 C 33.023438 61.703125 28.976562 60.585938 25.46875 58.625 L 25.46875 54.90625 C 25.46875 51.820312 27.996094 49.292969 31.082031 49.292969 Z M 31.082031 49.292969 " fill-opacity="1" fill-rule="evenodd"/></g><path fill="#246e82" d="M 39.769531 40.394531 L 39.769531 43.429688 C 39.769531 45.027344 38.433594 46.882812 36.800781 46.882812 L 35.546875 46.882812 C 33.914062 46.882812 32.582031 45.027344 32.582031 43.429688 L 32.582031 40.675781 C 30.804688 38.070312 33.167969 36.039062 34.601562 36.699219 C 34.605469 36.6875 34.609375 36.671875 34.617188 36.660156 C 35.199219 35.300781 38.101562 34.808594 39.457031 36.949219 C 40.410156 38.453125 40.5625 39 41.550781 38.511719 C 41.253906 39.5625 40.585938 40.148438 39.769531 40.394531 Z M 39.769531 40.394531 " fill-opacity="1" fill-rule="evenodd"/><path fill="#ffc57a" d="M 32.582031 43.425781 C 31.664062 43.335938 31.046875 41.375 31.65625 40.683594 C 31.925781 40.378906 32.316406 40.394531 32.582031 40.675781 Z M 32.582031 43.425781 " fill-opacity="1" fill-rule="evenodd"/><path fill="#ffc57a" d="M 39.769531 43.425781 C 40.683594 43.335938 41.300781 41.375 40.691406 40.683594 C 40.421875 40.378906 40.03125 40.394531 39.769531 40.675781 Z M 39.769531 43.425781 " fill-opacity="1" fill-rule="evenodd"/><path fill="#ffffff" d="M 33.667969 48.195312 L 38.636719 48.195312 C 38.945312 48.195312 39.195312 48.445312 39.195312 48.753906 L 39.195312 49.292969 L 33.109375 49.292969 L 33.109375 48.753906 C 33.109375 48.445312 33.359375 48.195312 33.667969 48.195312 Z M 33.667969 48.195312 " fill-opacity="1" fill-rule="evenodd"/></svg>